REM DIRINDEX 1\2\4\18,1\2\4\19,1\2\5\20,1\2\5\21,1\2\6\22,1\2\7\23,1\2\8\24,1\2\8\25,1\2\9\26,1\2\10\27,1\3\11\28,1\3\11\29,1\3\11\30,1\3\11\31,1\3\12\32,1\3\12\33,1\3\12\34,1\3\12\35,1\3\13\36,1\3\13\37,1\3\14\38,1\3\14\39,1\3\15\40,1\3\15\41,1\3\15\42,1\3\16\43,1\3\16\44,1\3\17\45,1\3\17\46
REM DIRNAME cjc024,folder01,folder02,folder03,folder04,folder05,folder06,folder07,folder08,folder09,folder10,folder11,folder12,folder13,folder14,folder15,folder16,folder17,folder18,folder19,folder20,folder21,folder22,folder23,folder24,folder25,folder26,folder27,folder28,folder29,folder30,folder31,folder32,folder33,folder34,folder35,folder36,folder37,folder38,folder39,folder40,folder41,folder42,folder43,folder44,folder45
TITLE ""
FILE "14.mp3" MP3
  TRACK 01 AUDIO
    TITLE "0:"
    INDEX 01 00:00:00
  TRACK 02 AUDIO
    TITLE "40:cjc024_7121"
    INDEX 01 00:00:13
  TRACK 03 AUDIO
    TITLE "0:"
    INDEX 01 00:01:32
  TRACK 04 AUDIO
    TITLE "41:cjc024_7122"
    INDEX 01 00:02:08
  TRACK 05 AUDIO
    TITLE "0:"
    INDEX 01 00:03:64
  TRACK 06 AUDIO
    TITLE "42:cjc024_7123"
    INDEX 01 00:04:13
  TRACK 07 AUDIO
    TITLE "0:"
    INDEX 01 00:06:08
  TRACK 08 AUDIO
    TITLE "41:cjc024_7124"
    INDEX 01 00:06:63
  TRACK 09 AUDIO
    TITLE "0:"
    INDEX 01 00:09:67
  TRACK 10 AUDIO
    TITLE "42:cjc024_7125"
    INDEX 01 00:10:18
  TRACK 11 AUDIO
    TITLE "0:"
    INDEX 01 00:13:55
  TRACK 12 AUDIO
    TITLE "40:cjc024_7126"
    INDEX 01 00:14:53
  TRACK 13 AUDIO
    TITLE "0:"
    INDEX 01 00:15:60
  TRACK 14 AUDIO
    TITLE "41:cjc024_7127"
    INDEX 01 00:16:42
  TRACK 15 AUDIO
    TITLE "0:"
    INDEX 01 00:18:41
  TRACK 16 AUDIO
    TITLE "42:cjc024_7128"
    INDEX 01 00:18:72
  TRACK 17 AUDIO
    TITLE "0:"
    INDEX 01 00:20:49
  TRACK 18 AUDIO
    TITLE "41:cjc024_7129"
    INDEX 01 00:21:33
  TRACK 19 AUDIO
    TITLE "0:"
    INDEX 01 00:24:16
  TRACK 20 AUDIO
    TITLE "42:cjc024_7130"
    INDEX 01 00:24:41
  TRACK 21 AUDIO
    TITLE "0:"
    INDEX 01 00:27:20
  TRACK 22 AUDIO
    TITLE "40:cjc024_7131"
    INDEX 01 00:28:23
  TRACK 23 AUDIO
    TITLE "0:"
    INDEX 01 00:29:33
  TRACK 24 AUDIO
    TITLE "41:cjc024_7132"
    INDEX 01 00:30:08
  TRACK 25 AUDIO
    TITLE "0:"
    INDEX 01 00:32:03
  TRACK 26 AUDIO
    TITLE "42:cjc024_7133"
    INDEX 01 00:32:27
  TRACK 27 AUDIO
    TITLE "0:"
    INDEX 01 00:33:68
  TRACK 28 AUDIO
    TITLE "41:cjc024_7134"
    INDEX 01 00:34:42
  TRACK 29 AUDIO
    TITLE "0:"
    INDEX 01 00:36:46
  TRACK 30 AUDIO
    TITLE "42:cjc024_7135"
    INDEX 01 00:36:70
  TRACK 31 AUDIO
    TITLE "0:"
    INDEX 01 00:38:49
  TRACK 32 AUDIO
    TITLE "41:cjc024_7136"
    INDEX 01 00:39:23
  TRACK 33 AUDIO
    TITLE "0:"
    INDEX 01 00:41:45
  TRACK 34 AUDIO
    TITLE "42:cjc024_7137"
    INDEX 01 00:41:71
  TRACK 35 AUDIO
    TITLE "0:"
    INDEX 01 00:44:24
  TRACK 36 AUDIO
    TITLE "41:cjc024_7138"
    INDEX 01 00:45:00
  TRACK 37 AUDIO
    TITLE "0:"
    INDEX 01 00:46:54
  TRACK 38 AUDIO
    TITLE "42:cjc024_7139"
    INDEX 01 00:47:07
  TRACK 39 AUDIO
    TITLE "0:"
    INDEX 01 00:48:65
  TRACK 40 AUDIO
    TITLE "41:cjc024_7140"
    INDEX 01 00:49:47
  TRACK 41 AUDIO
    TITLE "0:"
    INDEX 01 00:51:42
  TRACK 42 AUDIO
    TITLE "42:cjc024_7141"
    INDEX 01 00:51:69
  TRACK 43 AUDIO
    TITLE "0:"
    INDEX 01 00:54:01
  TRACK 44 AUDIO
    TITLE "40:cjc024_7142"
    INDEX 01 00:55:03
  TRACK 45 AUDIO
    TITLE "0:"
    INDEX 01 00:56:16
  TRACK 46 AUDIO
    TITLE "41:cjc024_7143"
    INDEX 01 00:56:67
  TRACK 47 AUDIO
    TITLE "0:"
    INDEX 01 01:00:27
  TRACK 48 AUDIO
    TITLE "42:cjc024_7144"
    INDEX 01 01:00:51
  TRACK 49 AUDIO
    TITLE "0:"
    INDEX 01 01:03:12
  TRACK 50 AUDIO
    TITLE "41:cjc024_7145"
    INDEX 01 01:03:63
  TRACK 51 AUDIO
    TITLE "0:"
    INDEX 01 01:05:46
  TRACK 52 AUDIO
    TITLE "42:cjc024_7146"
    INDEX 01 01:05:69
  TRACK 53 AUDIO
    TITLE "0:"
    INDEX 01 01:07:47
  TRACK 54 AUDIO
    TITLE "41:cjc024_7147"
    INDEX 01 01:08:23
  TRACK 55 AUDIO
    TITLE "0:"
    INDEX 01 01:10:02
  TRACK 56 AUDIO
    TITLE "42:cjc024_7148"
    INDEX 01 01:10:30
  TRACK 57 AUDIO
    TITLE "0:"
    INDEX 01 01:12:15
  TRACK 58 AUDIO
    TITLE "40:cjc024_7149"
    INDEX 01 01:13:14
  TRACK 59 AUDIO
    TITLE "0:"
    INDEX 01 01:14:23
  TRACK 60 AUDIO
    TITLE "41:cjc024_7150"
    INDEX 01 01:15:01
  TRACK 61 AUDIO
    TITLE "0:"
    INDEX 01 01:17:04
  TRACK 62 AUDIO
    TITLE "42:cjc024_7151"
    INDEX 01 01:17:32
  TRACK 63 AUDIO
    TITLE "0:"
    INDEX 01 01:19:23
  TRACK 64 AUDIO
    TITLE "41:cjc024_7152"
    INDEX 01 01:19:70
  TRACK 65 AUDIO
    TITLE "0:"
    INDEX 01 01:21:69
  TRACK 66 AUDIO
    TITLE "42:cjc024_7153"
    INDEX 01 01:22:27
  TRACK 67 AUDIO
    TITLE "0:"
    INDEX 01 01:24:47
  TRACK 68 AUDIO
    TITLE "41:cjc024_7154"
    INDEX 01 01:25:21
  TRACK 69 AUDIO
    TITLE "0:"
    INDEX 01 01:28:63
  TRACK 70 AUDIO
    TITLE "42:cjc024_7155"
    INDEX 01 01:29:13
  TRACK 71 AUDIO
    TITLE "0:"
    INDEX 01 01:32:04
  TRACK 72 AUDIO
    TITLE "40:cjc024_7156"
    INDEX 01 01:33:03
  TRACK 73 AUDIO
    TITLE "0:"
    INDEX 01 01:34:14
  TRACK 74 AUDIO
    TITLE "41:cjc024_7157"
    INDEX 01 01:34:65
  TRACK 75 AUDIO
    TITLE "0:"
    INDEX 01 01:36:29
  TRACK 76 AUDIO
    TITLE "42:cjc024_7158"
    INDEX 01 01:36:54
  TRACK 77 AUDIO
    TITLE "0:"
    INDEX 01 01:38:36
  TRACK 78 AUDIO
    TITLE "41:cjc024_7159"
    INDEX 01 01:39:10
  TRACK 79 AUDIO
    TITLE "0:"
    INDEX 01 01:41:63
  TRACK 80 AUDIO
    TITLE "42:cjc024_7160"
    INDEX 01 01:42:12
  TRACK 81 AUDIO
    TITLE "0:"
    INDEX 01 01:44:48
  TRACK 82 AUDIO
    TITLE "40:cjc024_7161"
    INDEX 01 01:45:47
  TRACK 83 AUDIO
    TITLE "0:"
    INDEX 01 01:46:51
  TRACK 84 AUDIO
    TITLE "41:cjc024_7162"
    INDEX 01 01:47:27
  TRACK 85 AUDIO
    TITLE "0:"
    INDEX 01 01:48:65
  TRACK 86 AUDIO
    TITLE "42:cjc024_7163"
    INDEX 01 01:49:16
  TRACK 87 AUDIO
    TITLE "0:"
    INDEX 01 01:50:68
  TRACK 88 AUDIO
    TITLE "41:cjc024_7164"
    INDEX 01 01:51:44
  TRACK 89 AUDIO
    TITLE "0:"
    INDEX 01 01:53:06
  TRACK 90 AUDIO
    TITLE "42:cjc024_7165"
    INDEX 01 01:53:31
  TRACK 91 AUDIO
    TITLE "0:"
    INDEX 01 01:55:15
  TRACK 92 AUDIO
    TITLE "40:cjc024_7166"
    INDEX 01 01:56:12
  TRACK 93 AUDIO
    TITLE "0:"
    INDEX 01 01:57:19
  TRACK 94 AUDIO
    TITLE "41:cjc024_7167"
    INDEX 01 01:57:70
  TRACK 95 AUDIO
    TITLE "0:"
    INDEX 01 01:59:50
  TRACK 96 AUDIO
    TITLE "42:cjc024_7168"
    INDEX 01 01:59:73
  TRACK 97 AUDIO
    TITLE "0:"
    INDEX 01 02:01:64
  TRACK 98 AUDIO
    TITLE "40:cjc024_7169"
    INDEX 01 02:02:66
  TRACK 99 AUDIO
    TITLE "0:"
    INDEX 01 02:03:69
  TRACK 100 AUDIO
    TITLE "41:cjc024_7170"
    INDEX 01 02:04:45
  TRACK 101 AUDIO
    TITLE "0:"
    INDEX 01 02:07:18
  TRACK 102 AUDIO
    TITLE "42:cjc024_7171"
    INDEX 01 02:07:43
  TRACK 103 AUDIO
    TITLE "0:"
    INDEX 01 02:10:14
  TRACK 104 AUDIO
    TITLE "41:cjc024_7172"
    INDEX 01 02:10:65
  TRACK 105 AUDIO
    TITLE "0:"
    INDEX 01 02:13:14
  TRACK 106 AUDIO
    TITLE "42:cjc024_7173"
    INDEX 01 02:13:42
  TRACK 107 AUDIO
    TITLE "0:"
    INDEX 01 02:15:66
  TRACK 108 AUDIO
    TITLE "40:cjc024_7174"
    INDEX 01 02:16:66
  TRACK 109 AUDIO
    TITLE "0:"
    INDEX 01 02:17:63
  TRACK 110 AUDIO
    TITLE "41:cjc024_7175"
    INDEX 01 02:18:39
  TRACK 111 AUDIO
    TITLE "0:"
    INDEX 01 02:20:14
  TRACK 112 AUDIO
    TITLE "42:cjc024_7176"
    INDEX 01 02:20:38
  TRACK 113 AUDIO
    TITLE "0:"
    INDEX 01 02:21:69
  TRACK 114 AUDIO
    TITLE "40:cjc024_7177"
    INDEX 01 02:22:70
  TRACK 115 AUDIO
    TITLE "0:"
    INDEX 01 02:23:68
  TRACK 116 AUDIO
    TITLE "41:cjc024_7178"
    INDEX 01 02:24:46
  TRACK 117 AUDIO
    TITLE "0:"
    INDEX 01 02:27:73
  TRACK 118 AUDIO
    TITLE "42:cjc024_7179"
    INDEX 01 02:28:24
  TRACK 119 AUDIO
    TITLE "0:"
    INDEX 01 02:30:42
  TRACK 120 AUDIO
    TITLE "41:cjc024_7180"
    INDEX 01 02:31:22
  TRACK 121 AUDIO
    TITLE "0:"
    INDEX 01 02:34:32
  TRACK 122 AUDIO
    TITLE "42:cjc024_7181"
    INDEX 01 02:34:58
  TRACK 123 AUDIO
    TITLE "0:"
    INDEX 01 02:37:11
  TRACK 124 AUDIO
    TITLE "41:cjc024_7182"
    INDEX 01 02:37:60
  TRACK 125 AUDIO
    TITLE "0:"
    INDEX 01 02:39:55
  TRACK 126 AUDIO
    TITLE "42:cjc024_7183"
    INDEX 01 02:40:05
  TRACK 127 AUDIO
    TITLE "0:"
    INDEX 01 02:41:60
  TRACK 128 AUDIO
    TITLE "40:cjc024_7184"
    INDEX 01 02:42:61
  TRACK 129 AUDIO
    TITLE "0:"
    INDEX 01 02:43:66
  TRACK 130 AUDIO
    TITLE "41:cjc024_7185"
    INDEX 01 02:44:38
  TRACK 131 AUDIO
    TITLE "0:"
    INDEX 01 02:46:51
  TRACK 132 AUDIO
    TITLE "42:cjc024_7186"
    INDEX 01 02:47:02
  TRACK 133 AUDIO
    TITLE "0:"
    INDEX 01 02:48:58
  TRACK 134 AUDIO
    TITLE "40:cjc024_7187"
    INDEX 01 02:49:59
  TRACK 135 AUDIO
    TITLE "0:"
    INDEX 01 02:50:66
  TRACK 136 AUDIO
    TITLE "41:cjc024_7188"
    INDEX 01 02:51:48
  TRACK 137 AUDIO
    TITLE "0:"
    INDEX 01 02:54:09
  TRACK 138 AUDIO
    TITLE "42:cjc024_7189"
    INDEX 01 02:54:33
  TRACK 139 AUDIO
    TITLE "0:"
    INDEX 01 02:56:48
  TRACK 140 AUDIO
    TITLE "41:cjc024_7190"
    INDEX 01 02:57:23
  TRACK 141 AUDIO
    TITLE "0:"
    INDEX 01 02:59:38
  TRACK 142 AUDIO
    TITLE "42:cjc024_7191"
    INDEX 01 02:59:65
  TRACK 143 AUDIO
    TITLE "0:"
    INDEX 01 03:02:13
  TRACK 144 AUDIO
    TITLE "41:cjc024_7192"
    INDEX 01 03:02:66
  TRACK 145 AUDIO
    TITLE "0:"
    INDEX 01 03:05:68
  TRACK 146 AUDIO
    TITLE "42:cjc024_7193"
    INDEX 01 03:06:18
  TRACK 147 AUDIO
    TITLE "0:"
    INDEX 01 03:08:68
  TRACK 148 AUDIO
    TITLE "41:cjc024_7194"
    INDEX 01 03:09:44
  TRACK 149 AUDIO
    TITLE "0:"
    INDEX 01 03:11:35
  TRACK 150 AUDIO
    TITLE "42:cjc024_7195"
    INDEX 01 03:11:61
  TRACK 151 AUDIO
    TITLE "0:"
    INDEX 01 03:13:26
  TRACK 152 AUDIO
    TITLE "40:cjc024_7196"
    INDEX 01 03:14:26
  TRACK 153 AUDIO
    TITLE "0:"
    INDEX 01 03:15:63
  TRACK 154 AUDIO
    TITLE "41:cjc024_7197"
    INDEX 01 03:16:35
  TRACK 155 AUDIO
    TITLE "0:"
    INDEX 01 03:17:69
  TRACK 156 AUDIO
    TITLE "42:cjc024_7198"
    INDEX 01 03:18:26
  TRACK 157 AUDIO
    TITLE "0:"
    INDEX 01 03:20:11
  TRACK 158 AUDIO
    TITLE "41:cjc024_7199"
    INDEX 01 03:20:60
  TRACK 159 AUDIO
    TITLE "0:"
    INDEX 01 03:23:48
  TRACK 160 AUDIO
    TITLE "42:cjc024_7200"
    INDEX 01 03:23:72
  TRACK 161 AUDIO
    TITLE "0:"
    INDEX 01 03:27:07
  TRACK 162 AUDIO
    TITLE "40:cjc024_7201"
    INDEX 01 03:28:04
  TRACK 163 AUDIO
    TITLE "0:"
    INDEX 01 03:28:73
  TRACK 164 AUDIO
    TITLE "41:cjc024_7202"
    INDEX 01 03:29:47
  TRACK 165 AUDIO
    TITLE "0:"
    INDEX 01 03:31:54
  TRACK 166 AUDIO
    TITLE "42:cjc024_7203"
    INDEX 01 03:32:06
  TRACK 167 AUDIO
    TITLE "0:"
    INDEX 01 03:34:15
  TRACK 168 AUDIO
    TITLE "40:cjc024_7204"
    INDEX 01 03:35:18
  TRACK 169 AUDIO
    TITLE "0:"
    INDEX 01 03:36:10
  TRACK 170 AUDIO
    TITLE "41:cjc024_7205"
    INDEX 01 03:36:67
  TRACK 171 AUDIO
    TITLE "0:"
    INDEX 01 03:39:67
  TRACK 172 AUDIO
    TITLE "42:cjc024_7206"
    INDEX 01 03:40:19
  TRACK 173 AUDIO
    TITLE "0:"
    INDEX 01 03:42:57
  TRACK 174 AUDIO
    TITLE "41:cjc024_7207"
    INDEX 01 03:43:41
  TRACK 175 AUDIO
    TITLE "0:"
    INDEX 01 03:45:58
  TRACK 176 AUDIO
    TITLE "42:cjc024_7208"
    INDEX 01 03:46:08
  TRACK 177 AUDIO
    TITLE "0:"
    INDEX 01 03:48:31
  TRACK 178 AUDIO
    TITLE "41:cjc024_7209"
    INDEX 01 03:49:09
  TRACK 179 AUDIO
    TITLE "0:"
    INDEX 01 03:52:09
  TRACK 180 AUDIO
    TITLE "42:cjc024_7210"
    INDEX 01 03:52:36
  TRACK 181 AUDIO
    TITLE "0:"
    INDEX 01 03:54:23
  TRACK 182 AUDIO
    TITLE "40:cjc024_7211"
    INDEX 01 03:55:23
  TRACK 183 AUDIO
    TITLE "0:"
    INDEX 01 03:56:22
  TRACK 184 AUDIO
    TITLE "41:cjc024_7212"
    INDEX 01 03:56:71
  TRACK 185 AUDIO
    TITLE "0:"
    INDEX 01 04:01:23
  TRACK 186 AUDIO
    TITLE "42:cjc024_7213"
    INDEX 01 04:01:49
  TRACK 187 AUDIO
    TITLE "0:"
    INDEX 01 04:04:41
  TRACK 188 AUDIO
    TITLE "41:cjc024_7214"
    INDEX 01 04:05:13
  TRACK 189 AUDIO
    TITLE "0:"
    INDEX 01 04:07:36
  TRACK 190 AUDIO
    TITLE "42:cjc024_7215"
    INDEX 01 04:07:59
  TRACK 191 AUDIO
    TITLE "0:"
    INDEX 01 04:09:70
  TRACK 192 AUDIO
    TITLE "40:cjc024_7216"
    INDEX 01 04:10:69
  TRACK 193 AUDIO
    TITLE "0:"
    INDEX 01 04:12:06
  TRACK 194 AUDIO
    TITLE "41:cjc024_7217"
    INDEX 01 04:12:57
  TRACK 195 AUDIO
    TITLE "0:"
    INDEX 01 04:14:59
  TRACK 196 AUDIO
    TITLE "42:cjc024_7218"
    INDEX 01 04:15:10
  TRACK 197 AUDIO
    TITLE "0:"
    INDEX 01 04:16:72
  TRACK 198 AUDIO
    TITLE "41:cjc024_7219"
    INDEX 01 04:17:48
  TRACK 199 AUDIO
    TITLE "0:"
    INDEX 01 04:19:68
  TRACK 200 AUDIO
    TITLE "42:cjc024_7220"
    INDEX 01 04:20:17
  TRACK 201 AUDIO
    TITLE "0:"
    INDEX 01 04:22:16
  TRACK 202 AUDIO
    TITLE "40:cjc024_7221"
    INDEX 01 04:23:15
  TRACK 203 AUDIO
    TITLE "0:"
    INDEX 01 04:24:42
  TRACK 204 AUDIO
    TITLE "41:cjc024_7222"
    INDEX 01 04:25:16
  TRACK 205 AUDIO
    TITLE "0:"
    INDEX 01 04:26:59
  TRACK 206 AUDIO
    TITLE "42:cjc024_7223"
    INDEX 01 04:27:05
  TRACK 207 AUDIO
    TITLE "0:"
    INDEX 01 04:29:08
  TRACK 208 AUDIO
    TITLE "41:cjc024_7224"
    INDEX 01 04:29:59
  TRACK 209 AUDIO
    TITLE "0:"
    INDEX 01 04:31:72
  TRACK 210 AUDIO
    TITLE "42:cjc024_7225"
    INDEX 01 04:32:18
  TRACK 211 AUDIO
    TITLE "0:"
    INDEX 01 04:34:19
  TRACK 212 AUDIO
    TITLE "40:cjc024_7226"
    INDEX 01 04:35:20
  TRACK 213 AUDIO
    TITLE "0:"
    INDEX 01 04:36:22
  TRACK 214 AUDIO
    TITLE "41:cjc024_7227"
    INDEX 01 04:36:73
  TRACK 215 AUDIO
    TITLE "0:"
    INDEX 01 04:39:06
  TRACK 216 AUDIO
    TITLE "42:cjc024_7228"
    INDEX 01 04:39:32
  TRACK 217 AUDIO
    TITLE "0:"
    INDEX 01 04:40:72
  TRACK 218 AUDIO
    TITLE "41:cjc024_7229"
    INDEX 01 04:41:48
  TRACK 219 AUDIO
    TITLE "0:"
    INDEX 01 04:43:43
  TRACK 220 AUDIO
    TITLE "42:cjc024_7230"
    INDEX 01 04:43:67
  TRACK 221 AUDIO
    TITLE "0:"
    INDEX 01 04:45:34
  TRACK 222 AUDIO
    TITLE "40:cjc024_7231"
    INDEX 01 04:46:36
  TRACK 223 AUDIO
    TITLE "0:"
    INDEX 01 04:47:55
  TRACK 224 AUDIO
    TITLE "41:cjc024_7232"
    INDEX 01 04:48:31
  TRACK 225 AUDIO
    TITLE "0:"
    INDEX 01 04:51:27
  TRACK 226 AUDIO
    TITLE "42:cjc024_7233"
    INDEX 01 04:51:53
  TRACK 227 AUDIO
    TITLE "0:"
    INDEX 01 04:54:39
  TRACK 228 AUDIO
    TITLE "41:cjc024_7234"
    INDEX 01 04:55:15
  TRACK 229 AUDIO
    TITLE "0:"
    INDEX 01 04:58:41
  TRACK 230 AUDIO
    TITLE "42:cjc024_7235"
    INDEX 01 04:58:65
  TRACK 231 AUDIO
    TITLE "0:"
    INDEX 01 05:02:02
  TRACK 232 AUDIO
    TITLE "40:cjc024_7236"
    INDEX 01 05:03:05
  TRACK 233 AUDIO
    TITLE "0:"
    INDEX 01 05:04:18
  TRACK 234 AUDIO
    TITLE "41:cjc024_7237"
    INDEX 01 05:04:67
  TRACK 235 AUDIO
    TITLE "0:"
    INDEX 01 05:06:44
  TRACK 236 AUDIO
    TITLE "42:cjc024_7238"
    INDEX 01 05:06:74
  TRACK 237 AUDIO
    TITLE "0:"
    INDEX 01 05:08:61
  TRACK 238 AUDIO
    TITLE "41:cjc024_7239"
    INDEX 01 05:09:35
  TRACK 239 AUDIO
    TITLE "0:"
    INDEX 01 05:11:63
  TRACK 240 AUDIO
    TITLE "42:cjc024_7240"
    INDEX 01 05:12:14
  TRACK 241 AUDIO
    TITLE "0:"
    INDEX 01 05:14:46
  TRACK 242 AUDIO
    TITLE "41:cjc024_7241"
    INDEX 01 05:15:20
  TRACK 243 AUDIO
    TITLE "0:"
    INDEX 01 05:17:21
  TRACK 244 AUDIO
    TITLE "42:cjc024_7242"
    INDEX 01 05:17:46
  TRACK 245 AUDIO
    TITLE "0:"
    INDEX 01 05:19:33
  TRACK 246 AUDIO
    TITLE "41:cjc024_7243"
    INDEX 01 05:20:09
  TRACK 247 AUDIO
    TITLE "0:"
    INDEX 01 05:22:55
  TRACK 248 AUDIO
    TITLE "42:cjc024_7244"
    INDEX 01 05:23:08
  TRACK 249 AUDIO
    TITLE "0:"
    INDEX 01 05:25:56
  TRACK 250 AUDIO
    TITLE "40:cjc024_7245"
    INDEX 01 05:26:55
  TRACK 251 AUDIO
    TITLE "0:"
    INDEX 01 05:27:66
  TRACK 252 AUDIO
    TITLE "41:cjc024_7246"
    INDEX 01 05:28:40
  TRACK 253 AUDIO
    TITLE "0:"
    INDEX 01 05:30:61
  TRACK 254 AUDIO
    TITLE "42:cjc024_7247"
    INDEX 01 05:31:11
  TRACK 255 AUDIO
    TITLE "0:"
    INDEX 01 05:33:16
  TRACK 256 AUDIO
    TITLE "41:cjc024_7248"
    INDEX 01 05:33:65
  TRACK 257 AUDIO
    TITLE "0:"
    INDEX 01 05:36:14
  TRACK 258 AUDIO
    TITLE "42:cjc024_7249"
    INDEX 01 05:36:42
  TRACK 259 AUDIO
    TITLE "0:"
    INDEX 01 05:38:70
  TRACK 260 AUDIO
    TITLE "41:cjc024_7250"
    INDEX 01 05:39:46
  TRACK 261 AUDIO
    TITLE "0:"
    INDEX 01 05:41:27
  TRACK 262 AUDIO
    TITLE "42:cjc024_7251"
    INDEX 01 05:41:55
  TRACK 263 AUDIO
    TITLE "0:"
    INDEX 01 05:43:38
  TRACK 264 AUDIO
    TITLE "40:cjc024_7252"
    INDEX 01 05:44:39
  TRACK 265 AUDIO
    TITLE "0:"
    INDEX 01 05:45:45
  TRACK 266 AUDIO
    TITLE "41:cjc024_7253"
    INDEX 01 05:46:20
  TRACK 267 AUDIO
    TITLE "0:"
    INDEX 01 05:48:43
  TRACK 268 AUDIO
    TITLE "42:cjc024_7254"
    INDEX 01 05:48:68
  TRACK 269 AUDIO
    TITLE "0:"
    INDEX 01 05:50:63
  TRACK 270 AUDIO
    TITLE "41:cjc024_7255"
    INDEX 01 05:51:39
  TRACK 271 AUDIO
    TITLE "0:"
    INDEX 01 05:53:22
  TRACK 272 AUDIO
    TITLE "42:cjc024_7256"
    INDEX 01 05:53:48
  TRACK 273 AUDIO
    TITLE "0:"
    INDEX 01 05:55:17
  TRACK 274 AUDIO
    TITLE "40:cjc024_7257"
    INDEX 01 05:56:17
  TRACK 275 AUDIO
    TITLE "0:"
    INDEX 01 05:57:24
  TRACK 276 AUDIO
    TITLE "41:cjc024_7258"
    INDEX 01 05:57:73
  TRACK 277 AUDIO
    TITLE "0:"
    INDEX 01 05:59:09
  TRACK 278 AUDIO
    TITLE "42:cjc024_7259"
    INDEX 01 05:59:35
  TRACK 279 AUDIO
    TITLE "0:"
    INDEX 01 06:00:56
  TRACK 280 AUDIO
    TITLE "41:cjc024_7260"
    INDEX 01 06:01:38
  TRACK 281 AUDIO
    TITLE "0:"
    INDEX 01 06:03:17
  TRACK 282 AUDIO
    TITLE "42:cjc024_7261"
    INDEX 01 06:03:40
  TRACK 283 AUDIO
    TITLE "0:"
    INDEX 01 06:04:63
  TRACK 284 AUDIO
    TITLE "41:cjc024_7262"
    INDEX 01 06:05:39
  TRACK 285 AUDIO
    TITLE "0:"
    INDEX 01 06:08:34
  TRACK 286 AUDIO
    TITLE "42:cjc024_7263"
    INDEX 01 06:08:61
  TRACK 287 AUDIO
    TITLE "0:"
    INDEX 01 06:11:44
  TRACK 288 AUDIO
    TITLE "41:cjc024_7264"
    INDEX 01 06:12:20
  TRACK 289 AUDIO
    TITLE "0:"
    INDEX 01 06:13:41
  TRACK 290 AUDIO
    TITLE "42:cjc024_7265"
    INDEX 01 06:13:68
  TRACK 291 AUDIO
    TITLE "0:"
    INDEX 01 06:15:30
  TRACK 292 AUDIO
    TITLE "41:cjc024_7266"
    INDEX 01 06:16:08
  TRACK 293 AUDIO
    TITLE "0:"
    INDEX 01 06:19:57
  TRACK 294 AUDIO
    TITLE "42:cjc024_7267"
    INDEX 01 06:20:10
  TRACK 295 AUDIO
    TITLE "0:"
    INDEX 01 06:22:52
  TRACK 296 AUDIO
    TITLE "40:cjc024_7268"
    INDEX 01 06:23:51
  TRACK 297 AUDIO
    TITLE "0:"
    INDEX 01 06:24:47
  TRACK 298 AUDIO
    TITLE "41:cjc024_7269"
    INDEX 01 06:25:21
  TRACK 299 AUDIO
    TITLE "0:"
    INDEX 01 06:26:32
  TRACK 300 AUDIO
    TITLE "42:cjc024_7270"
    INDEX 01 06:26:55
  TRACK 301 AUDIO
    TITLE "0:"
    INDEX 01 06:28:31
  TRACK 302 AUDIO
    TITLE "41:cjc024_7271"
    INDEX 01 06:29:05
  TRACK 303 AUDIO
    TITLE "0:"
    INDEX 01 06:31:54
  TRACK 304 AUDIO
    TITLE "42:cjc024_7272"
    INDEX 01 06:32:05
  TRACK 305 AUDIO
    TITLE "0:"
    INDEX 01 06:33:69
  TRACK 306 AUDIO
    TITLE "40:cjc024_7273"
    INDEX 01 06:34:70
  TRACK 307 AUDIO
    TITLE "0:"
    INDEX 01 06:36:14
  TRACK 308 AUDIO
    TITLE "41:cjc024_7274"
    INDEX 01 06:36:63
  TRACK 309 AUDIO
    TITLE "0:"
    INDEX 01 06:38:37
  TRACK 310 AUDIO
    TITLE "42:cjc024_7275"
    INDEX 01 06:38:62
  TRACK 311 AUDIO
    TITLE "0:"
    INDEX 01 06:40:61
  TRACK 312 AUDIO
    TITLE "41:cjc024_7276"
    INDEX 01 06:41:35
  TRACK 313 AUDIO
    TITLE "0:"
    INDEX 01 06:43:15
  TRACK 314 AUDIO
    TITLE "42:cjc024_7277"
    INDEX 01 06:43:38
  TRACK 315 AUDIO
    TITLE "0:"
    INDEX 01 06:45:08
  TRACK 316 AUDIO
    TITLE "41:cjc024_7278"
    INDEX 01 06:45:60
  TRACK 317 AUDIO
    TITLE "0:"
    INDEX 01 06:48:00
  TRACK 318 AUDIO
    TITLE "42:cjc024_7279"
    INDEX 01 06:48:25
  TRACK 319 AUDIO
    TITLE "0:"
    INDEX 01 06:50:32
  TRACK 320 AUDIO
    TITLE "40:cjc024_7280"
    INDEX 01 06:51:36
  TRACK 321 AUDIO
    TITLE "0:"
    INDEX 01 06:52:49
  TRACK 322 AUDIO
    TITLE "41:cjc024_7281"
    INDEX 01 06:53:25
  TRACK 323 AUDIO
    TITLE "0:"
    INDEX 01 06:55:24
  TRACK 324 AUDIO
    TITLE "42:cjc024_7282"
    INDEX 01 06:55:47
  TRACK 325 AUDIO
    TITLE "0:"
    INDEX 01 06:57:21
  TRACK 326 AUDIO
    TITLE "41:cjc024_7283"
    INDEX 01 06:57:71
  TRACK 327 AUDIO
    TITLE "0:"
    INDEX 01 06:59:45
  TRACK 328 AUDIO
    TITLE "42:cjc024_7284"
    INDEX 01 06:59:72
  TRACK 329 AUDIO
    TITLE "0:"
    INDEX 01 07:01:54
  TRACK 330 AUDIO
    TITLE "41:cjc024_7285"
    INDEX 01 07:02:30
  TRACK 331 AUDIO
    TITLE "0:"
    INDEX 01 07:06:02
  TRACK 332 AUDIO
    TITLE "42:cjc024_7286"
    INDEX 01 07:06:29
  TRACK 333 AUDIO
    TITLE "0:"
    INDEX 01 07:09:37
  TRACK 334 AUDIO
    TITLE "41:cjc024_7287"
    INDEX 01 07:10:25
  TRACK 335 AUDIO
    TITLE "0:"
    INDEX 01 07:12:48
  TRACK 336 AUDIO
    TITLE "42:cjc024_7288"
    INDEX 01 07:12:71
  TRACK 337 AUDIO
    TITLE "0:"
    INDEX 01 07:15:01
  TRACK 338 AUDIO
    TITLE "40:cjc024_7289"
    INDEX 01 07:16:04
  TRACK 339 AUDIO
    TITLE "0:"
    INDEX 01 07:17:02
  TRACK 340 AUDIO
    TITLE "41:cjc024_7290"
    INDEX 01 07:17:55
  TRACK 341 AUDIO
    TITLE "0:"
    INDEX 01 07:19:24
  TRACK 342 AUDIO
    TITLE "42:cjc024_7291"
    INDEX 01 07:19:50
  TRACK 343 AUDIO
    TITLE "0:"
    INDEX 01 07:20:53
  TRACK 344 AUDIO
    TITLE "41:cjc024_7292"
    INDEX 01 07:21:27
  TRACK 345 AUDIO
    TITLE "0:"
    INDEX 01 07:23:18
  TRACK 346 AUDIO
    TITLE "42:cjc024_7293"
    INDEX 01 07:23:43
  TRACK 347 AUDIO
    TITLE "0:"
    INDEX 01 07:25:03
  TRACK 348 AUDIO
    TITLE "40:cjc024_7294"
    INDEX 01 07:26:05
  TRACK 349 AUDIO
    TITLE "0:"
    INDEX 01 07:27:04
  TRACK 350 AUDIO
    TITLE "41:cjc024_7295"
    INDEX 01 07:27:55
  TRACK 351 AUDIO
    TITLE "0:"
    INDEX 01 07:30:00
  TRACK 352 AUDIO
    TITLE "42:cjc024_7296"
    INDEX 01 07:30:26
  TRACK 353 AUDIO
    TITLE "0:"
    INDEX 01 07:31:74
  TRACK 354 AUDIO
    TITLE "41:cjc024_7297"
    INDEX 01 07:32:52
  TRACK 355 AUDIO
    TITLE "0:"
    INDEX 01 07:34:41
  TRACK 356 AUDIO
    TITLE "42:cjc024_7298"
    INDEX 01 07:34:69
  TRACK 357 AUDIO
    TITLE "0:"
    INDEX 01 07:36:68
  TRACK 358 AUDIO
    TITLE "40:cjc024_7299"
    INDEX 01 07:37:67
  TRACK 359 AUDIO
    TITLE "0:"
    INDEX 01 07:38:70
  TRACK 360 AUDIO
    TITLE "41:cjc024_7300"
    INDEX 01 07:39:48
  TRACK 361 AUDIO
    TITLE "0:"
    INDEX 01 07:43:36
  TRACK 362 AUDIO
    TITLE "42:cjc024_7301"
    INDEX 01 07:43:66
  TRACK 363 AUDIO
    TITLE "0:"
    INDEX 01 07:46:41
  TRACK 364 AUDIO
    TITLE "41:cjc024_7302"
    INDEX 01 07:47:18
  TRACK 365 AUDIO
    TITLE "0:"
    INDEX 01 07:51:18
  TRACK 366 AUDIO
    TITLE "42:cjc024_7303"
    INDEX 01 07:51:46
  TRACK 367 AUDIO
    TITLE "0:"
    INDEX 01 07:55:16
  TRACK 368 AUDIO
    TITLE "41:cjc024_7304"
    INDEX 01 07:55:69
  TRACK 369 AUDIO
    TITLE "0:"
    INDEX 01 07:57:33
  TRACK 370 AUDIO
    TITLE "42:cjc024_7305"
    INDEX 01 07:57:56
  TRACK 371 AUDIO
    TITLE "0:"
    INDEX 01 07:59:26
  TRACK 372 AUDIO
    TITLE "41:cjc024_7306"
    INDEX 01 08:00:01
  TRACK 373 AUDIO
    TITLE "0:"
    INDEX 01 08:02:63
  TRACK 374 AUDIO
    TITLE "42:cjc024_7307"
    INDEX 01 08:03:14
  TRACK 375 AUDIO
    TITLE "0:"
    INDEX 01 08:05:18
  TRACK 376 AUDIO
    TITLE "40:cjc024_7308"
    INDEX 01 08:06:22
  TRACK 377 AUDIO
    TITLE "0:"
    INDEX 01 08:07:21
  TRACK 378 AUDIO
    TITLE "41:cjc024_7309"
    INDEX 01 08:07:70
  TRACK 379 AUDIO
    TITLE "0:"
    INDEX 01 08:09:53
  TRACK 380 AUDIO
    TITLE "42:cjc024_7310"
    INDEX 01 08:10:06
  TRACK 381 AUDIO
    TITLE "0:"
    INDEX 01 08:11:44
  TRACK 382 AUDIO
    TITLE "41:cjc024_7311"
    INDEX 01 08:12:20
  TRACK 383 AUDIO
    TITLE "0:"
    INDEX 01 08:15:28
  TRACK 384 AUDIO
    TITLE "42:cjc024_7312"
    INDEX 01 08:15:54
  TRACK 385 AUDIO
    TITLE "0:"
    INDEX 01 08:18:05
  TRACK 386 AUDIO
    TITLE "41:cjc024_7313"
    INDEX 01 08:18:56
  TRACK 387 AUDIO
    TITLE "0:"
    INDEX 01 08:21:02
  TRACK 388 AUDIO
    TITLE "42:cjc024_7314"
    INDEX 01 08:21:25
  TRACK 389 AUDIO
    TITLE "0:"
    INDEX 01 08:23:03
  TRACK 390 AUDIO
    TITLE "40:cjc024_7315"
    INDEX 01 08:24:04
  TRACK 391 AUDIO
    TITLE "0:"
    INDEX 01 08:25:09
  TRACK 392 AUDIO
    TITLE "41:cjc024_7316"
    INDEX 01 08:25:58
  TRACK 393 AUDIO
    TITLE "0:"
    INDEX 01 08:28:04
  TRACK 394 AUDIO
    TITLE "42:cjc024_7317"
    INDEX 01 08:28:25
  TRACK 395 AUDIO
    TITLE "0:"
    INDEX 01 08:30:24
  TRACK 396 AUDIO
    TITLE "40:cjc024_7318"
    INDEX 01 08:31:26
  TRACK 397 AUDIO
    TITLE "0:"
    INDEX 01 08:32:29
  TRACK 398 AUDIO
    TITLE "41:cjc024_7319"
    INDEX 01 08:33:09
  TRACK 399 AUDIO
    TITLE "0:"
    INDEX 01 08:36:27
  TRACK 400 AUDIO
    TITLE "42:cjc024_7320"
    INDEX 01 08:36:50
  TRACK 401 AUDIO
    TITLE "0:"
    INDEX 01 08:38:69
  TRACK 402 AUDIO
    TITLE "41:cjc024_7321"
    INDEX 01 08:39:45
  TRACK 403 AUDIO
    TITLE "0:"
    INDEX 01 08:41:44
  TRACK 404 AUDIO
    TITLE "42:cjc024_7322"
    INDEX 01 08:42:06
  TRACK 405 AUDIO
    TITLE "0:"
    INDEX 01 08:43:46
  TRACK 406 AUDIO
    TITLE "41:cjc024_7323"
    INDEX 01 08:44:20
  TRACK 407 AUDIO
    TITLE "0:"
    INDEX 01 08:46:43
  TRACK 408 AUDIO
    TITLE "42:cjc024_7324"
    INDEX 01 08:46:68
  TRACK 409 AUDIO
    TITLE "0:"
    INDEX 01 08:48:61
  TRACK 410 AUDIO
    TITLE "40:cjc024_7325"
    INDEX 01 08:49:65
  TRACK 411 AUDIO
    TITLE "0:"
    INDEX 01 08:50:64
  TRACK 412 AUDIO
    TITLE "41:cjc024_7326"
    INDEX 01 08:51:38
  TRACK 413 AUDIO
    TITLE "0:"
    INDEX 01 08:54:09
  TRACK 414 AUDIO
    TITLE "42:cjc024_7327"
    INDEX 01 08:54:36
  TRACK 415 AUDIO
    TITLE "0:"
    INDEX 01 08:56:37
  TRACK 416 AUDIO
    TITLE "41:cjc024_7328"
    INDEX 01 08:57:13
  TRACK 417 AUDIO
    TITLE "0:"
    INDEX 01 09:00:10
  TRACK 418 AUDIO
    TITLE "42:cjc024_7329"
    INDEX 01 09:00:33
  TRACK 419 AUDIO
    TITLE "0:"
    INDEX 01 09:02:67
  TRACK 420 AUDIO
    TITLE "41:cjc024_7330"
    INDEX 01 09:03:43
  TRACK 421 AUDIO
    TITLE "0:"
    INDEX 01 09:05:73
  TRACK 422 AUDIO
    TITLE "42:cjc024_7331"
    INDEX 01 09:06:24
  TRACK 423 AUDIO
    TITLE "0:"
    INDEX 01 09:08:31
  TRACK 424 AUDIO
    TITLE "41:cjc024_7332"
    INDEX 01 09:09:07
  TRACK 425 AUDIO
    TITLE "0:"
    INDEX 01 09:12:19
  TRACK 426 AUDIO
    TITLE "42:cjc024_7333"
    INDEX 01 09:12:44
  TRACK 427 AUDIO
    TITLE "0:"
    INDEX 01 09:14:61
  TRACK 428 AUDIO
    TITLE "41:cjc024_7334"
    INDEX 01 09:15:37
  TRACK 429 AUDIO
    TITLE "0:"
    INDEX 01 09:18:43
  TRACK 430 AUDIO
    TITLE "42:cjc024_7335"
    INDEX 01 09:18:66
  TRACK 431 AUDIO
    TITLE "0:"
    INDEX 01 09:21:49
  TRACK 432 AUDIO
    TITLE "40:cjc024_7336"
    INDEX 01 09:22:48
  TRACK 433 AUDIO
    TITLE "0:"
    INDEX 01 09:23:62
  TRACK 434 AUDIO
    TITLE "41:cjc024_7337"
    INDEX 01 09:24:41
  TRACK 435 AUDIO
    TITLE "0:"
    INDEX 01 09:28:06
  TRACK 436 AUDIO
    TITLE "42:cjc024_7338"
    INDEX 01 09:28:31
  TRACK 437 AUDIO
    TITLE "0:"
    INDEX 01 09:31:28
  TRACK 438 AUDIO
    TITLE "40:cjc024_7339"
    INDEX 01 09:32:27
  TRACK 439 AUDIO
    TITLE "0:"
    INDEX 01 09:33:33
  TRACK 440 AUDIO
    TITLE "41:cjc024_7340"
    INDEX 01 09:34:05
  TRACK 441 AUDIO
    TITLE "0:"
    INDEX 01 09:35:43
  TRACK 442 AUDIO
    TITLE "42:cjc024_7341"
    INDEX 01 09:35:71
  TRACK 443 AUDIO
    TITLE "0:"
    INDEX 01 09:37:30
  TRACK 444 AUDIO
    TITLE "41:cjc024_7342"
    INDEX 01 09:38:08
  TRACK 445 AUDIO
    TITLE "0:"
    INDEX 01 09:40:33
  TRACK 446 AUDIO
    TITLE "42:cjc024_7343"
    INDEX 01 09:40:62
  TRACK 447 AUDIO
    TITLE "0:"
    INDEX 01 09:42:41
  TRACK 448 AUDIO
    TITLE "40:cjc024_7344"
    INDEX 01 09:43:50
  TRACK 449 AUDIO
    TITLE "0:"
    INDEX 01 09:44:58
  TRACK 450 AUDIO
    TITLE "41:cjc024_7345"
    INDEX 01 09:45:32
  TRACK 451 AUDIO
    TITLE "0:"
    INDEX 01 09:48:52
  TRACK 452 AUDIO
    TITLE "42:cjc024_7346"
    INDEX 01 09:49:00
  TRACK 453 AUDIO
    TITLE "0:"
    INDEX 01 09:51:50
  TRACK 454 AUDIO
    TITLE "40:cjc024_7347"
    INDEX 01 09:52:53
  TRACK 455 AUDIO
    TITLE "0:"
    INDEX 01 09:53:49
  TRACK 456 AUDIO
    TITLE "41:cjc024_7348"
    INDEX 01 09:54:35
  TRACK 457 AUDIO
    TITLE "0:"
    INDEX 01 09:55:65
  TRACK 458 AUDIO
    TITLE "42:cjc024_7349"
    INDEX 01 09:56:16
  TRACK 459 AUDIO
    TITLE "0:"
    INDEX 01 09:57:49
  TRACK 460 AUDIO
    TITLE "41:cjc024_7350"
    INDEX 01 09:58:27
  TRACK 461 AUDIO
    TITLE "0:"
    INDEX 01 10:01:03
  TRACK 462 AUDIO
    TITLE "42:cjc024_7351"
    INDEX 01 10:01:33
  TRACK 463 AUDIO
    TITLE "0:"
    INDEX 01 10:02:62
  TRACK 464 AUDIO
    TITLE "41:cjc024_7352"
    INDEX 01 10:03:45
  TRACK 465 AUDIO
    TITLE "0:"
    INDEX 01 10:05:33
  TRACK 466 AUDIO
    TITLE "42:cjc024_7353"
    INDEX 01 10:05:56
  TRACK 467 AUDIO
    TITLE "0:"
    INDEX 01 10:07:29
  TRACK 468 AUDIO
    TITLE "41:cjc024_7354"
    INDEX 01 10:08:05
  TRACK 469 AUDIO
    TITLE "0:"
    INDEX 01 10:09:36
  TRACK 470 AUDIO
    TITLE "42:cjc024_7355"
    INDEX 01 10:09:62
  TRACK 471 AUDIO
    TITLE "0:"
    INDEX 01 10:11:31
  TRACK 472 AUDIO
    TITLE "40:cjc024_7356"
    INDEX 01 10:12:33
  TRACK 473 AUDIO
    TITLE "0:"
    INDEX 01 10:13:36
  TRACK 474 AUDIO
    TITLE "41:cjc024_7357"
    INDEX 01 10:14:14
  TRACK 475 AUDIO
    TITLE "0:"
    INDEX 01 10:15:41
  TRACK 476 AUDIO
    TITLE "42:cjc024_7358"
    INDEX 01 10:15:64
  TRACK 477 AUDIO
    TITLE "0:"
    INDEX 01 10:17:57
  TRACK 478 AUDIO
    TITLE "41:cjc024_7359"
    INDEX 01 10:18:43
  TRACK 479 AUDIO
    TITLE "0:"
    INDEX 01 10:21:02
  TRACK 480 AUDIO
    TITLE "42:cjc024_7360"
    INDEX 01 10:21:28
  TRACK 481 AUDIO
    TITLE "0:"
    INDEX 01 10:23:30
  TRACK 482 AUDIO
    TITLE "41:cjc024_7361"
    INDEX 01 10:24:06
  TRACK 483 AUDIO
    TITLE "0:"
    INDEX 01 10:26:44
  TRACK 484 AUDIO
    TITLE "42:cjc024_7362"
    INDEX 01 10:26:74
  TRACK 485 AUDIO
    TITLE "0:"
    INDEX 01 10:29:55
  TRACK 486 AUDIO
    TITLE "40:cjc024_7363"
    INDEX 01 10:30:56
  TRACK 487 AUDIO
    TITLE "0:"
    INDEX 01 10:31:51
  TRACK 488 AUDIO
    TITLE "41:cjc024_7364"
    INDEX 01 10:32:27
  TRACK 489 AUDIO
    TITLE "0:"
    INDEX 01 10:33:60
  TRACK 490 AUDIO
    TITLE "42:cjc024_7365"
    INDEX 01 10:34:13
  TRACK 491 AUDIO
    TITLE "0:"
    INDEX 01 10:35:55
  TRACK 492 AUDIO
    TITLE "41:cjc024_7366"
    INDEX 01 10:36:31
  TRACK 493 AUDIO
    TITLE "0:"
    INDEX 01 10:38:24
  TRACK 494 AUDIO
    TITLE "42:cjc024_7367"
    INDEX 01 10:38:54
  TRACK 495 AUDIO
    TITLE "0:"
    INDEX 01 10:40:17
  TRACK 496 AUDIO
    TITLE "41:cjc024_7368"
    INDEX 01 10:40:70
  TRACK 497 AUDIO
    TITLE "0:"
    INDEX 01 10:44:15
  TRACK 498 AUDIO
    TITLE "42:cjc024_7369"
    INDEX 01 10:44:40
  TRACK 499 AUDIO
    TITLE "0:"
    INDEX 01 10:47:09
  TRACK 500 AUDIO
    TITLE "40:cjc024_7370"
    INDEX 01 10:48:09
  TRACK 501 AUDIO
    TITLE "0:"
    INDEX 01 10:49:08
  TRACK 502 AUDIO
    TITLE "41:cjc024_7371"
    INDEX 01 10:49:57
  TRACK 503 AUDIO
    TITLE "0:"
    INDEX 01 10:51:35
  TRACK 504 AUDIO
    TITLE "42:cjc024_7372"
    INDEX 01 10:51:60
  TRACK 505 AUDIO
    TITLE "0:"
    INDEX 01 10:53:24
  TRACK 506 AUDIO
    TITLE "41:cjc024_7373"
    INDEX 01 10:54:00
  TRACK 507 AUDIO
    TITLE "0:"
    INDEX 01 10:55:46
  TRACK 508 AUDIO
    TITLE "42:cjc024_7374"
    INDEX 01 10:55:74
  TRACK 509 AUDIO
    TITLE "0:"
    INDEX 01 10:57:21
  TRACK 510 AUDIO
    TITLE "41:cjc024_7375"
    INDEX 01 10:57:70
  TRACK 511 AUDIO
    TITLE "0:"
    INDEX 01 11:00:37
  TRACK 512 AUDIO
    TITLE "42:cjc024_7376"
    INDEX 01 11:00:61
  TRACK 513 AUDIO
    TITLE "0:"
    INDEX 01 11:02:52
  TRACK 514 AUDIO
    TITLE "41:cjc024_7377"
    INDEX 01 11:03:28
  TRACK 515 AUDIO
    TITLE "0:"
    INDEX 01 11:05:43
  TRACK 516 AUDIO
    TITLE "42:cjc024_7378"
    INDEX 01 11:05:66
  TRACK 517 AUDIO
    TITLE "0:"
    INDEX 01 11:07:73
  TRACK 518 AUDIO
    TITLE "40:cjc024_7379"
    INDEX 01 11:08:72
  TRACK 519 AUDIO
    TITLE "0:"
    INDEX 01 11:10:05
  TRACK 520 AUDIO
    TITLE "41:cjc024_7380"
    INDEX 01 11:10:57
  TRACK 521 AUDIO
    TITLE "0:"
    INDEX 01 11:12:56
  TRACK 522 AUDIO
    TITLE "42:cjc024_7381"
    INDEX 01 11:13:09
  TRACK 523 AUDIO
    TITLE "0:"
    INDEX 01 11:15:14
  TRACK 524 AUDIO
    TITLE "41:cjc024_7382"
    INDEX 01 11:15:61
  TRACK 525 AUDIO
    TITLE "0:"
    INDEX 01 11:19:00
  TRACK 526 AUDIO
    TITLE "42:cjc024_7383"
    INDEX 01 11:19:23
  TRACK 527 AUDIO
    TITLE "0:"
    INDEX 01 11:21:44
  TRACK 528 AUDIO
    TITLE "41:cjc024_7384"
    INDEX 01 11:22:18
  TRACK 529 AUDIO
    TITLE "0:"
    INDEX 01 11:24:44
  TRACK 530 AUDIO
    TITLE "42:cjc024_7385"
    INDEX 01 11:24:67
  TRACK 531 AUDIO
    TITLE "0:"
    INDEX 01 11:26:37
  TRACK 532 AUDIO
    TITLE "40:cjc024_7386"
    INDEX 01 11:27:36
  TRACK 533 AUDIO
    TITLE "0:"
    INDEX 01 11:28:30
  TRACK 534 AUDIO
    TITLE "41:cjc024_7387"
    INDEX 01 11:29:04
  TRACK 535 AUDIO
    TITLE "0:"
    INDEX 01 11:32:18
  TRACK 536 AUDIO
    TITLE "42:cjc024_7388"
    INDEX 01 11:32:39
  TRACK 537 AUDIO
    TITLE "0:"
    INDEX 01 11:35:10
  TRACK 538 AUDIO
    TITLE "41:cjc024_7389"
    INDEX 01 11:35:59
  TRACK 539 AUDIO
    TITLE "0:"
    INDEX 01 11:38:54
  TRACK 540 AUDIO
    TITLE "42:cjc024_7390"
    INDEX 01 11:39:02
  TRACK 541 AUDIO
    TITLE "0:"
    INDEX 01 11:41:40
  TRACK 542 AUDIO
    TITLE "41:cjc024_7391"
    INDEX 01 11:42:18
  TRACK 543 AUDIO
    TITLE "0:"
    INDEX 01 11:43:63
  TRACK 544 AUDIO
    TITLE "42:cjc024_7392"
    INDEX 01 11:44:09
  TRACK 545 AUDIO
    TITLE "0:"
    INDEX 01 11:45:40
  TRACK 546 AUDIO
    TITLE "41:cjc024_7393"
    INDEX 01 11:46:16
  TRACK 547 AUDIO
    TITLE "0:"
    INDEX 01 11:49:03
  TRACK 548 AUDIO
    TITLE "42:cjc024_7394"
    INDEX 01 11:49:28
  TRACK 549 AUDIO
    TITLE "0:"
    INDEX 01 11:51:64
  TRACK 550 AUDIO
    TITLE "40:cjc024_7395"
    INDEX 01 11:52:68
  TRACK 551 AUDIO
    TITLE "0:"
    INDEX 01 11:53:67
  TRACK 552 AUDIO
    TITLE "41:cjc024_7396"
    INDEX 01 11:54:43
  TRACK 553 AUDIO
    TITLE "0:"
    INDEX 01 11:59:13
  TRACK 554 AUDIO
    TITLE "42:cjc024_7397"
    INDEX 01 11:59:40
  TRACK 555 AUDIO
    TITLE "0:"
    INDEX 01 12:02:52
  TRACK 556 AUDIO
    TITLE "41:cjc024_7398"
    INDEX 01 12:03:26
  TRACK 557 AUDIO
    TITLE "0:"
    INDEX 01 12:05:06
  TRACK 558 AUDIO
    TITLE "42:cjc024_7399"
    INDEX 01 12:05:33
  TRACK 559 AUDIO
    TITLE "0:"
    INDEX 01 12:06:72
  TRACK 560 AUDIO
    TITLE "40:cjc024_7400"
    INDEX 01 12:07:71
  TRACK 561 AUDIO
    TITLE "0:"
    INDEX 01 12:08:65
  TRACK 562 AUDIO
    TITLE "41:cjc024_7401"
    INDEX 01 12:09:41
  TRACK 563 AUDIO
    TITLE "0:"
    INDEX 01 12:11:55
  TRACK 564 AUDIO
    TITLE "42:cjc024_7402"
    INDEX 01 12:12:08
  TRACK 565 AUDIO
    TITLE "0:"
    INDEX 01 12:13:54
  TRACK 566 AUDIO
    TITLE "41:cjc024_7403"
    INDEX 01 12:14:30
  TRACK 567 AUDIO
    TITLE "0:"
    INDEX 01 12:16:19
  TRACK 568 AUDIO
    TITLE "42:cjc024_7404"
    INDEX 01 12:16:45
  TRACK 569 AUDIO
    TITLE "0:"
    INDEX 01 12:18:10
  TRACK 570 AUDIO
    TITLE "40:cjc024_7405"
    INDEX 01 12:19:14
  TRACK 571 AUDIO
    TITLE "0:"
    INDEX 01 12:20:07
  TRACK 572 AUDIO
    TITLE "41:cjc024_7406"
    INDEX 01 12:20:58
  TRACK 573 AUDIO
    TITLE "0:"
    INDEX 01 12:22:63
  TRACK 574 AUDIO
    TITLE "42:cjc024_7407"
    INDEX 01 12:23:11
  TRACK 575 AUDIO
    TITLE "0:"
    INDEX 01 12:24:56
  TRACK 576 AUDIO
    TITLE "40:cjc024_7408"
    INDEX 01 12:25:53
  TRACK 577 AUDIO
    TITLE "0:"
    INDEX 01 12:26:63
  TRACK 578 AUDIO
    TITLE "41:cjc024_7409"
    INDEX 01 12:27:37
  TRACK 579 AUDIO
    TITLE "0:"
    INDEX 01 12:29:33
  TRACK 580 AUDIO
    TITLE "42:cjc024_7410"
    INDEX 01 12:29:63
  TRACK 581 AUDIO
    TITLE "0:"
    INDEX 01 12:31:36
  TRACK 582 AUDIO
    TITLE "41:cjc024_7411"
    INDEX 01 12:32:12
  TRACK 583 AUDIO
    TITLE "0:"
    INDEX 01 12:33:67
  TRACK 584 AUDIO
    TITLE "42:cjc024_7412"
    INDEX 01 12:34:15
  TRACK 585 AUDIO
    TITLE "0:"
    INDEX 01 12:36:12
  TRACK 586 AUDIO
    TITLE "41:cjc024_7413"
    INDEX 01 12:36:65
  TRACK 587 AUDIO
    TITLE "0:"
    INDEX 01 12:38:54
  TRACK 588 AUDIO
    TITLE "42:cjc024_7414"
    INDEX 01 12:39:03
  TRACK 589 AUDIO
    TITLE "0:"
    INDEX 01 12:40:47
  TRACK 590 AUDIO
    TITLE "40:cjc024_7415"
    INDEX 01 12:41:48
  TRACK 591 AUDIO
    TITLE "0:"
    INDEX 01 12:42:52
  TRACK 592 AUDIO
    TITLE "41:cjc024_7416"
    INDEX 01 12:43:28
  TRACK 593 AUDIO
    TITLE "0:"
    INDEX 01 12:46:73
  TRACK 594 AUDIO
    TITLE "42:cjc024_7417"
    INDEX 01 12:47:26
  TRACK 595 AUDIO
    TITLE "0:"
    INDEX 01 12:50:08
  TRACK 596 AUDIO
    TITLE "41:cjc024_7418"
    INDEX 01 12:50:61
  TRACK 597 AUDIO
    TITLE "0:"
    INDEX 01 12:53:46
  TRACK 598 AUDIO
    TITLE "42:cjc024_7419"
    INDEX 01 12:54:04
  TRACK 599 AUDIO
    TITLE "0:"
    INDEX 01 12:56:19
  TRACK 600 AUDIO
    TITLE "40:cjc024_7420"
    INDEX 01 12:57:18
  TRACK 601 AUDIO
    TITLE "0:"
    INDEX 01 12:58:18
  TRACK 602 AUDIO
    TITLE "41:cjc024_7421"
    INDEX 01 12:58:68
  TRACK 603 AUDIO
    TITLE "0:"
    INDEX 01 13:00:12
  TRACK 604 AUDIO
    TITLE "42:cjc024_7422"
    INDEX 01 13:00:40
  TRACK 605 AUDIO
    TITLE "0:"
    INDEX 01 13:02:25
  TRACK 606 AUDIO
    TITLE "41:cjc024_7423"
    INDEX 01 13:03:01
  TRACK 607 AUDIO
    TITLE "0:"
    INDEX 01 13:04:40
  TRACK 608 AUDIO
    TITLE "42:cjc024_7424"
    INDEX 01 13:04:63
  TRACK 609 AUDIO
    TITLE "0:"
    INDEX 01 13:06:37
  TRACK 610 AUDIO
    TITLE "40:cjc024_7425"
    INDEX 01 13:07:36
  TRACK 611 AUDIO
    TITLE "0:"
    INDEX 01 13:08:49
  TRACK 612 AUDIO
    TITLE "41:cjc024_7426"
    INDEX 01 13:09:23
  TRACK 613 AUDIO
    TITLE "0:"
    INDEX 01 13:12:39
  TRACK 614 AUDIO
    TITLE "42:cjc024_7427"
    INDEX 01 13:12:65
  TRACK 615 AUDIO
    TITLE "0:"
    INDEX 01 13:15:36
  TRACK 616 AUDIO
    TITLE "41:cjc024_7428"
    INDEX 01 13:16:12
  TRACK 617 AUDIO
    TITLE "0:"
    INDEX 01 13:18:40
  TRACK 618 AUDIO
    TITLE "42:cjc024_7429"
    INDEX 01 13:18:63
  TRACK 619 AUDIO
    TITLE "0:"
    INDEX 01 13:20:66
  TRACK 620 AUDIO
    TITLE "41:cjc024_7430"
    INDEX 01 13:21:40
  TRACK 621 AUDIO
    TITLE "0:"
    INDEX 01 13:24:33
  TRACK 622 AUDIO
    TITLE "42:cjc024_7431"
    INDEX 01 13:24:52
  TRACK 623 AUDIO
    TITLE "0:"
    INDEX 01 13:27:35
  TRACK 624 AUDIO
    TITLE "40:cjc024_7432"
    INDEX 01 13:28:40
  TRACK 625 AUDIO
    TITLE "0:"
    INDEX 01 13:29:55
  TRACK 626 AUDIO
    TITLE "41:cjc024_7433"
    INDEX 01 13:30:33
  TRACK 627 AUDIO
    TITLE "0:"
    INDEX 01 13:32:11
  TRACK 628 AUDIO
    TITLE "42:cjc024_7434"
    INDEX 01 13:32:38
  TRACK 629 AUDIO
    TITLE "0:"
    INDEX 01 13:34:25
  TRACK 630 AUDIO
    TITLE "41:cjc024_7435"
    INDEX 01 13:35:07
  TRACK 631 AUDIO
    TITLE "0:"
    INDEX 01 13:36:71
  TRACK 632 AUDIO
    TITLE "42:cjc024_7436"
    INDEX 01 13:37:23
  TRACK 633 AUDIO
    TITLE "0:"
    INDEX 01 13:39:18
  TRACK 634 AUDIO
    TITLE "40:cjc024_7437"
    INDEX 01 13:40:20
  TRACK 635 AUDIO
    TITLE "0:"
    INDEX 01 13:41:47
  TRACK 636 AUDIO
    TITLE "41:cjc024_7438"
    INDEX 01 13:42:23
  TRACK 637 AUDIO
    TITLE "0:"
    INDEX 01 13:44:20
  TRACK 638 AUDIO
    TITLE "42:cjc024_7439"
    INDEX 01 13:44:41
  TRACK 639 AUDIO
    TITLE "0:"
    INDEX 01 13:46:36
  TRACK 640 AUDIO
    TITLE "41:cjc024_7440"
    INDEX 01 13:47:18
  TRACK 641 AUDIO
    TITLE "0:"
    INDEX 01 13:49:01
  TRACK 642 AUDIO
    TITLE "42:cjc024_7441"
    INDEX 01 13:49:31
  TRACK 643 AUDIO
    TITLE "0:"
    INDEX 01 13:51:22
  TRACK 644 AUDIO
    TITLE "40:cjc024_7442"
    INDEX 01 13:52:21
  TRACK 645 AUDIO
    TITLE "0:"
    INDEX 01 13:53:21
  TRACK 646 AUDIO
    TITLE "41:cjc024_7443"
    INDEX 01 13:53:69
  TRACK 647 AUDIO
    TITLE "0:"
    INDEX 01 13:56:74
  TRACK 648 AUDIO
    TITLE "42:cjc024_7444"
    INDEX 01 13:57:22
  TRACK 649 AUDIO
    TITLE "0:"
    INDEX 01 13:59:60
  TRACK 650 AUDIO
    TITLE "41:cjc024_7445"
    INDEX 01 14:00:34
  TRACK 651 AUDIO
    TITLE "0:"
    INDEX 01 14:01:61
  TRACK 652 AUDIO
    TITLE "42:cjc024_7446"
    INDEX 01 14:02:12
  TRACK 653 AUDIO
    TITLE "0:"
    INDEX 01 14:03:52
  TRACK 654 AUDIO
    TITLE "40:cjc024_7447"
    INDEX 01 14:04:56
  TRACK 655 AUDIO
    TITLE "0:"
    INDEX 01 14:05:51
  TRACK 656 AUDIO
    TITLE "41:cjc024_7448"
    INDEX 01 14:06:27
  TRACK 657 AUDIO
    TITLE "0:"
    INDEX 01 14:09:53
  TRACK 658 AUDIO
    TITLE "42:cjc024_7449"
    INDEX 01 14:10:03
  TRACK 659 AUDIO
    TITLE "0:"
    INDEX 01 14:12:47
  TRACK 660 AUDIO
    TITLE "41:cjc024_7450"
    INDEX 01 14:13:25
  TRACK 661 AUDIO
    TITLE "0:"
    INDEX 01 14:15:22
  TRACK 662 AUDIO
    TITLE "42:cjc024_7451"
    INDEX 01 14:15:50
  TRACK 663 AUDIO
    TITLE "0:"
    INDEX 01 14:17:17
  TRACK 664 AUDIO
    TITLE "41:cjc024_7452"
    INDEX 01 14:18:03
  TRACK 665 AUDIO
    TITLE "0:"
    INDEX 01 14:20:31
  TRACK 666 AUDIO
    TITLE "42:cjc024_7453"
    INDEX 01 14:20:57
  TRACK 667 AUDIO
    TITLE "0:"
    INDEX 01 14:23:04
  TRACK 668 AUDIO
    TITLE "40:cjc024_7454"
    INDEX 01 14:24:03
  TRACK 669 AUDIO
    TITLE "0:"
    INDEX 01 14:25:03
  TRACK 670 AUDIO
    TITLE "41:cjc024_7455"
    INDEX 01 14:25:54
  TRACK 671 AUDIO
    TITLE "0:"
    INDEX 01 14:27:10
  TRACK 672 AUDIO
    TITLE "42:cjc024_7456"
    INDEX 01 14:27:33
  TRACK 673 AUDIO
    TITLE "0:"
    INDEX 01 14:28:52
  TRACK 674 AUDIO
    TITLE "41:cjc024_7457"
    INDEX 01 14:29:38
  TRACK 675 AUDIO
    TITLE "0:"
    INDEX 01 14:32:23
  TRACK 676 AUDIO
    TITLE "42:cjc024_7458"
    INDEX 01 14:32:50
  TRACK 677 AUDIO
    TITLE "0:"
    INDEX 01 14:35:25
  TRACK 678 AUDIO
    TITLE "41:cjc024_7459"
    INDEX 01 14:35:74
  TRACK 679 AUDIO
    TITLE "0:"
    INDEX 01 14:38:74
  TRACK 680 AUDIO
    TITLE "42:cjc024_7460"
    INDEX 01 14:39:27
  TRACK 681 AUDIO
    TITLE "0:"
    INDEX 01 14:41:41
  TRACK 682 AUDIO
    TITLE "41:cjc024_7461"
    INDEX 01 14:42:13
  TRACK 683 AUDIO
    TITLE "0:"
    INDEX 01 14:44:65
  TRACK 684 AUDIO
    TITLE "42:cjc024_7462"
    INDEX 01 14:45:09
  TRACK 685 AUDIO
    TITLE "0:"
    INDEX 01 14:47:42
  TRACK 686 AUDIO
    TITLE "40:cjc024_7463"
    INDEX 01 14:48:39
  TRACK 687 AUDIO
    TITLE "0:"
    INDEX 01 14:49:48
  TRACK 688 AUDIO
    TITLE "41:cjc024_7464"
    INDEX 01 14:50:24
  TRACK 689 AUDIO
    TITLE "0:"
    INDEX 01 14:52:29
  TRACK 690 AUDIO
    TITLE "42:cjc024_7465"
    INDEX 01 14:52:55
  TRACK 691 AUDIO
    TITLE "0:"
    INDEX 01 14:54:61
  TRACK 692 AUDIO
    TITLE "41:cjc024_7466"
    INDEX 01 14:55:35
  TRACK 693 AUDIO
    TITLE "0:"
    INDEX 01 14:58:28
  TRACK 694 AUDIO
    TITLE "42:cjc024_7467"
    INDEX 01 14:58:51
  TRACK 695 AUDIO
    TITLE "0:"
    INDEX 01 15:01:24
  TRACK 696 AUDIO
    TITLE "41:cjc024_7468"
    INDEX 01 15:01:73
  TRACK 697 AUDIO
    TITLE "0:"
    INDEX 01 15:04:48
  TRACK 698 AUDIO
    TITLE "42:cjc024_7469"
    INDEX 01 15:04:72
  TRACK 699 AUDIO
    TITLE "0:"
    INDEX 01 15:06:70
  TRACK 700 AUDIO
    TITLE "40:cjc024_7470"
    INDEX 01 15:08:07
  TRACK 701 AUDIO
    TITLE "0:"
    INDEX 01 15:09:12
  TRACK 702 AUDIO
    TITLE "41:cjc024_7471"
    INDEX 01 15:09:63
  TRACK 703 AUDIO
    TITLE "0:"
    INDEX 01 15:11:40
  TRACK 704 AUDIO
    TITLE "42:cjc024_7472"
    INDEX 01 15:11:68
  TRACK 705 AUDIO
    TITLE "0:"
    INDEX 01 15:13:35
  TRACK 706 AUDIO
    TITLE "41:cjc024_7473"
    INDEX 01 15:14:09
  TRACK 707 AUDIO
    TITLE "0:"
    INDEX 01 15:16:34
  TRACK 708 AUDIO
    TITLE "42:cjc024_7474"
    INDEX 01 15:16:55
  TRACK 709 AUDIO
    TITLE "0:"
    INDEX 01 15:18:42
  TRACK 710 AUDIO
    TITLE "41:cjc024_7475"
    INDEX 01 15:19:18
  TRACK 711 AUDIO
    TITLE "0:"
    INDEX 01 15:21:11
  TRACK 712 AUDIO
    TITLE "42:cjc024_7476"
    INDEX 01 15:21:39
  TRACK 713 AUDIO
    TITLE "0:"
    INDEX 01 15:23:34
  TRACK 714 AUDIO
    TITLE "41:cjc024_7477"
    INDEX 01 15:24:12
  TRACK 715 AUDIO
    TITLE "0:"
    INDEX 01 15:27:31
  TRACK 716 AUDIO
    TITLE "42:cjc024_7478"
    INDEX 01 15:27:59
  TRACK 717 AUDIO
    TITLE "0:"
    INDEX 01 15:29:69
  TRACK 718 AUDIO
    TITLE "41:cjc024_7479"
    INDEX 01 15:30:45
  TRACK 719 AUDIO
    TITLE "0:"
    INDEX 01 15:31:68
  TRACK 720 AUDIO
    TITLE "42:cjc024_7480"
    INDEX 01 15:32:19
  TRACK 721 AUDIO
    TITLE "0:"
    INDEX 01 15:33:63
  TRACK 722 AUDIO
    TITLE "40:cjc024_7481"
    INDEX 01 15:34:65
  TRACK 723 AUDIO
    TITLE "0:"
    INDEX 01 15:35:68
  TRACK 724 AUDIO
    TITLE "41:cjc024_7482"
    INDEX 01 15:36:52
  TRACK 725 AUDIO
    TITLE "0:"
    INDEX 01 15:40:60
  TRACK 726 AUDIO
    TITLE "42:cjc024_7483"
    INDEX 01 15:41:14
  TRACK 727 AUDIO
    TITLE "0:"
    INDEX 01 15:43:46
  TRACK 728 AUDIO
    TITLE "41:cjc024_7484"
    INDEX 01 15:44:26
  TRACK 729 AUDIO
    TITLE "0:"
    INDEX 01 15:46:60
  TRACK 730 AUDIO
    TITLE "42:cjc024_7485"
    INDEX 01 15:47:13
  TRACK 731 AUDIO
    TITLE "0:"
    INDEX 01 15:49:45
  TRACK 732 AUDIO
    TITLE "40:cjc024_7486"
    INDEX 01 15:50:40
  TRACK 733 AUDIO
    TITLE "0:"
    INDEX 01 15:51:51
  TRACK 734 AUDIO
    TITLE "41:cjc024_7487"
    INDEX 01 15:52:25
  TRACK 735 AUDIO
    TITLE "0:"
    INDEX 01 15:54:36
  TRACK 736 AUDIO
    TITLE "42:cjc024_7488"
    INDEX 01 15:54:66
  TRACK 737 AUDIO
    TITLE "0:"
    INDEX 01 15:56:45
  TRACK 738 AUDIO
    TITLE "41:cjc024_7489"
    INDEX 01 15:57:21
  TRACK 739 AUDIO
    TITLE "0:"
    INDEX 01 15:59:26
  TRACK 740 AUDIO
    TITLE "42:cjc024_7490"
    INDEX 01 15:59:53
  TRACK 741 AUDIO
    TITLE "0:"
    INDEX 01 16:01:40
  TRACK 742 AUDIO
    TITLE "41:cjc024_7491"
    INDEX 01 16:02:18
  TRACK 743 AUDIO
    TITLE "0:"
    INDEX 01 16:04:05
  TRACK 744 AUDIO
    TITLE "42:cjc024_7492"
    INDEX 01 16:04:33
  TRACK 745 AUDIO
    TITLE "0:"
    INDEX 01 16:06:16
  TRACK 746 AUDIO
    TITLE "40:cjc024_7493"
    INDEX 01 16:07:15
  TRACK 747 AUDIO
    TITLE "0:"
    INDEX 01 16:08:23
  TRACK 748 AUDIO
    TITLE "41:cjc024_7494"
    INDEX 01 16:08:72
  TRACK 749 AUDIO
    TITLE "0:"
    INDEX 01 16:12:26
  TRACK 750 AUDIO
    TITLE "42:cjc024_7495"
    INDEX 01 16:12:54
  TRACK 751 AUDIO
    TITLE "0:"
    INDEX 01 16:15:62
  TRACK 752 AUDIO
    TITLE "41:cjc024_7496"
    INDEX 01 16:16:38
  TRACK 753 AUDIO
    TITLE "0:"
    INDEX 01 16:18:74
  TRACK 754 AUDIO
    TITLE "42:cjc024_7497"
    INDEX 01 16:19:20
  TRACK 755 AUDIO
    TITLE "0:"
    INDEX 01 16:21:23
  TRACK 756 AUDIO
    TITLE "41:cjc024_7498"
    INDEX 01 16:21:74
  TRACK 757 AUDIO
    TITLE "0:"
    INDEX 01 16:24:39
  TRACK 758 AUDIO
    TITLE "42:cjc024_7499"
    INDEX 01 16:24:69
  TRACK 759 AUDIO
    TITLE "0:"
    INDEX 01 16:27:20
  TRACK 760 AUDIO
    TITLE "40:cjc024_7500"
    INDEX 01 16:28:27
  TRACK 761 AUDIO
    TITLE "0:"
    INDEX 01 16:29:29
  TRACK 762 AUDIO
    TITLE "41:cjc024_7501"
    INDEX 01 16:30:05
  TRACK 763 AUDIO
    TITLE "0:"
    INDEX 01 16:32:50
  TRACK 764 AUDIO
    TITLE "42:cjc024_7502"
    INDEX 01 16:33:03
  TRACK 765 AUDIO
    TITLE "0:"
    INDEX 01 16:35:47
  TRACK 766 AUDIO
    TITLE "41:cjc024_7503"
    INDEX 01 16:36:23
  TRACK 767 AUDIO
    TITLE "0:"
    INDEX 01 16:38:69
  TRACK 768 AUDIO
    TITLE "42:cjc024_7504"
    INDEX 01 16:39:17
  TRACK 769 AUDIO
    TITLE "0:"
    INDEX 01 16:40:56
  TRACK 770 AUDIO
    TITLE "40:cjc024_7505"
    INDEX 01 16:41:61
  TRACK 771 AUDIO
    TITLE "0:"
    INDEX 01 16:42:59
  TRACK 772 AUDIO
    TITLE "41:cjc024_7506"
    INDEX 01 16:43:39
  TRACK 773 AUDIO
    TITLE "0:"
    INDEX 01 16:46:09
  TRACK 774 AUDIO
    TITLE "42:cjc024_7507"
    INDEX 01 16:46:35
  TRACK 775 AUDIO
    TITLE "0:"
    INDEX 01 16:49:02
  TRACK 776 AUDIO
    TITLE "41:cjc024_7508"
    INDEX 01 16:49:61
  TRACK 777 AUDIO
    TITLE "0:"
    INDEX 01 16:51:22
  TRACK 778 AUDIO
    TITLE "42:cjc024_7509"
    INDEX 01 16:51:48
  TRACK 779 AUDIO
    TITLE "0:"
    INDEX 01 16:52:71
  TRACK 780 AUDIO
    TITLE "41:cjc024_7510"
    INDEX 01 16:53:45
  TRACK 781 AUDIO
    TITLE "0:"
    INDEX 01 16:55:30
  TRACK 782 AUDIO
    TITLE "42:cjc024_7511"
    INDEX 01 16:55:53
  TRACK 783 AUDIO
    TITLE "0:"
    INDEX 01 16:57:31
  TRACK 784 AUDIO
    TITLE "40:cjc024_7512"
    INDEX 01 16:58:32
  TRACK 785 AUDIO
    TITLE "0:"
    INDEX 01 16:59:34
  TRACK 786 AUDIO
    TITLE "41:cjc024_7513"
    INDEX 01 17:00:10
  TRACK 787 AUDIO
    TITLE "0:"
    INDEX 01 17:03:00
  TRACK 788 AUDIO
    TITLE "42:cjc024_7514"
    INDEX 01 17:03:26
  TRACK 789 AUDIO
    TITLE "0:"
    INDEX 01 17:05:26
  TRACK 790 AUDIO
    TITLE "41:cjc024_7515"
    INDEX 01 17:06:00
  TRACK 791 AUDIO
    TITLE "0:"
    INDEX 01 17:09:46
  TRACK 792 AUDIO
    TITLE "42:cjc024_7516"
    INDEX 01 17:09:71
  TRACK 793 AUDIO
    TITLE "0:"
    INDEX 01 17:12:23
  TRACK 794 AUDIO
    TITLE "41:cjc024_7517"
    INDEX 01 17:12:70
  TRACK 795 AUDIO
    TITLE "0:"
    INDEX 01 17:15:31
  TRACK 796 AUDIO
    TITLE "42:cjc024_7518"
    INDEX 01 17:15:56
  TRACK 797 AUDIO
    TITLE "0:"
    INDEX 01 17:17:41
  TRACK 798 AUDIO
    TITLE "41:cjc024_7519"
    INDEX 01 17:18:17
  TRACK 799 AUDIO
    TITLE "0:"
    INDEX 01 17:20:69
  TRACK 800 AUDIO
    TITLE "42:cjc024_7520"
    INDEX 01 17:21:18
  TRACK 801 AUDIO
    TITLE "0:"
    INDEX 01 17:22:72
  TRACK 802 AUDIO
    TITLE "41:cjc024_7521"
    INDEX 01 17:23:50
  TRACK 803 AUDIO
    TITLE "0:"
    INDEX 01 17:26:25
  TRACK 804 AUDIO
    TITLE "42:cjc024_7522"
    INDEX 01 17:26:50
  TRACK 805 AUDIO
    TITLE "0:"
    INDEX 01 17:29:05
  TRACK 806 AUDIO
    TITLE "40:cjc024_7523"
    INDEX 01 17:30:07
  TRACK 807 AUDIO
    TITLE "0:"
    INDEX 01 17:31:14
  TRACK 808 AUDIO
    TITLE "41:cjc024_7524"
    INDEX 01 17:31:63
  TRACK 809 AUDIO
    TITLE "0:"
    INDEX 01 17:34:08
  TRACK 810 AUDIO
    TITLE "42:cjc024_7525"
    INDEX 01 17:34:38
  TRACK 811 AUDIO
    TITLE "0:"
    INDEX 01 17:36:54
  TRACK 812 AUDIO
    TITLE "41:cjc024_7526"
    INDEX 01 17:37:28
  TRACK 813 AUDIO
    TITLE "0:"
    INDEX 01 17:39:49
  TRACK 814 AUDIO
    TITLE "42:cjc024_7527"
    INDEX 01 17:39:70
  TRACK 815 AUDIO
    TITLE "0:"
    INDEX 01 17:42:30
  TRACK 816 AUDIO
    TITLE "40:cjc024_7528"
    INDEX 01 17:43:31
  TRACK 817 AUDIO
    TITLE "0:"
    INDEX 01 17:44:46
  TRACK 818 AUDIO
    TITLE "41:cjc024_7529"
    INDEX 01 17:45:26
  TRACK 819 AUDIO
    TITLE "0:"
    INDEX 01 17:48:11
  TRACK 820 AUDIO
    TITLE "42:cjc024_7530"
    INDEX 01 17:48:40
  TRACK 821 AUDIO
    TITLE "0:"
    INDEX 01 17:51:23
  TRACK 822 AUDIO
    TITLE "41:cjc024_7531"
    INDEX 01 17:52:04
  TRACK 823 AUDIO
    TITLE "0:"
    INDEX 01 17:54:44
  TRACK 824 AUDIO
    TITLE "42:cjc024_7532"
    INDEX 01 17:55:03
  TRACK 825 AUDIO
    TITLE "0:"
    INDEX 01 17:57:23
  TRACK 826 AUDIO
    TITLE "41:cjc024_7533"
    INDEX 01 17:58:03
  TRACK 827 AUDIO
    TITLE "0:"
    INDEX 01 18:00:71
  TRACK 828 AUDIO
    TITLE "42:cjc024_7534"
    INDEX 01 18:01:19
  TRACK 829 AUDIO
    TITLE "0:"
    INDEX 01 18:03:67
  TRACK 830 AUDIO
    TITLE "40:cjc024_7535"
    INDEX 01 18:04:62
  TRACK 831 AUDIO
    TITLE "0:"
    INDEX 01 18:06:01
  TRACK 832 AUDIO
    TITLE "41:cjc024_7536"
    INDEX 01 18:06:54
  TRACK 833 AUDIO
    TITLE "0:"
    INDEX 01 18:08:47
  TRACK 834 AUDIO
    TITLE "42:cjc024_7537"
    INDEX 01 18:08:72
  TRACK 835 AUDIO
    TITLE "0:"
    INDEX 01 18:10:51
  TRACK 836 AUDIO
    TITLE "41:cjc024_7538"
    INDEX 01 18:11:33
  TRACK 837 AUDIO
    TITLE "0:"
    INDEX 01 18:14:30
  TRACK 838 AUDIO
    TITLE "42:cjc024_7539"
    INDEX 01 18:14:59
  TRACK 839 AUDIO
    TITLE "0:"
    INDEX 01 18:17:04
  TRACK 840 AUDIO
    TITLE "40:cjc024_7540"
    INDEX 01 18:18:06
  TRACK 841 AUDIO
    TITLE "0:"
    INDEX 01 18:19:27
  TRACK 842 AUDIO
    TITLE "41:cjc024_7541"
    INDEX 01 18:20:03
  TRACK 843 AUDIO
    TITLE "0:"
    INDEX 01 18:21:24
  TRACK 844 AUDIO
    TITLE "42:cjc024_7542"
    INDEX 01 18:21:47
  TRACK 845 AUDIO
    TITLE "0:"
    INDEX 01 18:23:26
  TRACK 846 AUDIO
    TITLE "41:cjc024_7543"
    INDEX 01 18:24:08
  TRACK 847 AUDIO
    TITLE "0:"
    INDEX 01 18:26:74
  TRACK 848 AUDIO
    TITLE "42:cjc024_7544"
    INDEX 01 18:27:34
  TRACK 849 AUDIO
    TITLE "0:"
    INDEX 01 18:29:29
  TRACK 850 AUDIO
    TITLE "40:cjc024_7545"
    INDEX 01 18:30:25
  TRACK 851 AUDIO
    TITLE "0:"
    INDEX 01 18:31:26
  TRACK 852 AUDIO
    TITLE "41:cjc024_7546"
    INDEX 01 18:32:00
  TRACK 853 AUDIO
    TITLE "0:"
    INDEX 01 18:33:68
  TRACK 854 AUDIO
    TITLE "42:cjc024_7547"
    INDEX 01 18:34:17
  TRACK 855 AUDIO
    TITLE "0:"
    INDEX 01 18:35:45
  TRACK 856 AUDIO
    TITLE "41:cjc024_7548"
    INDEX 01 18:36:21
  TRACK 857 AUDIO
    TITLE "0:"
    INDEX 01 18:37:64
  TRACK 858 AUDIO
    TITLE "42:cjc024_7549"
    INDEX 01 18:38:12
  TRACK 859 AUDIO
    TITLE "0:"
    INDEX 01 18:39:69
  TRACK 860 AUDIO
    TITLE "41:cjc024_7550"
    INDEX 01 18:40:47
  TRACK 861 AUDIO
    TITLE "0:"
    INDEX 01 18:43:66
  TRACK 862 AUDIO
    TITLE "42:cjc024_7551"
    INDEX 01 18:44:21
  TRACK 863 AUDIO
    TITLE "0:"
    INDEX 01 18:46:61
  TRACK 864 AUDIO
    TITLE "41:cjc024_7552"
    INDEX 01 18:47:39
  TRACK 865 AUDIO
    TITLE "0:"
    INDEX 01 18:50:31
  TRACK 866 AUDIO
    TITLE "42:cjc024_7553"
    INDEX 01 18:50:61
  TRACK 867 AUDIO
    TITLE "0:"
    INDEX 01 18:53:22
  TRACK 868 AUDIO
    TITLE "40:cjc024_7554"
    INDEX 01 18:54:23
  TRACK 869 AUDIO
    TITLE "0:"
    INDEX 01 18:55:26
  TRACK 870 AUDIO
    TITLE "41:cjc024_7555"
    INDEX 01 18:56:04
  TRACK 871 AUDIO
    TITLE "0:"
    INDEX 01 18:58:41
  TRACK 872 AUDIO
    TITLE "42:cjc024_7556"
    INDEX 01 18:58:66
  TRACK 873 AUDIO
    TITLE "0:"
    INDEX 01 19:00:63
  TRACK 874 AUDIO
    TITLE "40:cjc024_7557"
    INDEX 01 19:01:60
  TRACK 875 AUDIO
    TITLE "0:"
    INDEX 01 19:03:03
  TRACK 876 AUDIO
    TITLE "41:cjc024_7558"
    INDEX 01 19:03:50
  TRACK 877 AUDIO
    TITLE "0:"
    INDEX 01 19:06:22
  TRACK 878 AUDIO
    TITLE "42:cjc024_7559"
    INDEX 01 19:06:50
  TRACK 879 AUDIO
    TITLE "0:"
    INDEX 01 19:09:21
  TRACK 880 AUDIO
    TITLE "41:cjc024_7560"
    INDEX 01 19:09:72
  TRACK 881 AUDIO
    TITLE "0:"
    INDEX 01 19:13:19
  TRACK 882 AUDIO
    TITLE "42:cjc024_7561"
    INDEX 01 19:13:42
  TRACK 883 AUDIO
    TITLE "0:"
    INDEX 01 19:15:57
  TRACK 884 AUDIO
    TITLE "41:cjc024_7562"
    INDEX 01 19:16:33
  TRACK 885 AUDIO
    TITLE "0:"
    INDEX 01 19:17:65
  TRACK 886 AUDIO
    TITLE "42:cjc024_7563"
    INDEX 01 19:18:20
  TRACK 887 AUDIO
    TITLE "0:"
    INDEX 01 19:20:03
  TRACK 888 AUDIO
    TITLE "40:cjc024_7564"
    INDEX 01 19:21:02
  TRACK 889 AUDIO
    TITLE "0:"
    INDEX 01 19:22:18
  TRACK 890 AUDIO
    TITLE "41:cjc024_7565"
    INDEX 01 19:22:66
  TRACK 891 AUDIO
    TITLE "0:"
    INDEX 01 19:25:32
  TRACK 892 AUDIO
    TITLE "42:cjc024_7566"
    INDEX 01 19:25:57
  TRACK 893 AUDIO
    TITLE "0:"
    INDEX 01 19:27:64
  TRACK 894 AUDIO
    TITLE "41:cjc024_7567"
    INDEX 01 19:28:40
  TRACK 895 AUDIO
    TITLE "0:"
    INDEX 01 19:31:65
  TRACK 896 AUDIO
    TITLE "42:cjc024_7568"
    INDEX 01 19:32:18
  TRACK 897 AUDIO
    TITLE "0:"
    INDEX 01 19:34:13
  TRACK 898 AUDIO
    TITLE "40:cjc024_7569"
    INDEX 01 19:35:10
  TRACK 899 AUDIO
    TITLE "0:"
    INDEX 01 19:36:22
  TRACK 900 AUDIO
    TITLE "41:cjc024_7570"
    INDEX 01 19:36:71
  TRACK 901 AUDIO
    TITLE "0:"
    INDEX 01 19:40:47
  TRACK 902 AUDIO
    TITLE "42:cjc024_7571"
    INDEX 01 19:40:70
  TRACK 903 AUDIO
    TITLE "0:"
    INDEX 01 19:43:14
  TRACK 904 AUDIO
    TITLE "41:cjc024_7572"
    INDEX 01 19:43:65
  TRACK 905 AUDIO
    TITLE "0:"
    INDEX 01 19:45:68
  TRACK 906 AUDIO
    TITLE "42:cjc024_7573"
    INDEX 01 19:46:20
  TRACK 907 AUDIO
    TITLE "0:"
    INDEX 01 19:48:23
  TRACK 908 AUDIO
    TITLE "41:cjc024_7574"
    INDEX 01 19:49:03
  TRACK 909 AUDIO
    TITLE "0:"
    INDEX 01 19:51:56
  TRACK 910 AUDIO
    TITLE "42:cjc024_7575"
    INDEX 01 19:52:09
  TRACK 911 AUDIO
    TITLE "0:"
    INDEX 01 19:53:65
  TRACK 912 AUDIO
    TITLE "40:cjc024_7576"
    INDEX 01 19:54:65
  TRACK 913 AUDIO
    TITLE "0:"
    INDEX 01 19:55:74
  TRACK 914 AUDIO
    TITLE "41:cjc024_7577"
    INDEX 01 19:56:52
  TRACK 915 AUDIO
    TITLE "0:"
    INDEX 01 19:59:17
  TRACK 916 AUDIO
    TITLE "42:cjc024_7578"
    INDEX 01 19:59:42
  TRACK 917 AUDIO
    TITLE "0:"
    INDEX 01 20:01:70
  TRACK 918 AUDIO
    TITLE "40:cjc024_7579"
    INDEX 01 20:02:72
  TRACK 919 AUDIO
    TITLE "0:"
    INDEX 01 20:04:10
  TRACK 920 AUDIO
    TITLE "41:cjc024_7580"
    INDEX 01 20:04:63
  TRACK 921 AUDIO
    TITLE "0:"
    INDEX 01 20:08:04
  TRACK 922 AUDIO
    TITLE "42:cjc024_7581"
    INDEX 01 20:08:33
  TRACK 923 AUDIO
    TITLE "0:"
    INDEX 01 20:10:66
  TRACK 924 AUDIO
    TITLE "41:cjc024_7582"
    INDEX 01 20:11:41
  TRACK 925 AUDIO
    TITLE "0:"
    INDEX 01 20:14:05
  TRACK 926 AUDIO
    TITLE "42:cjc024_7583"
    INDEX 01 20:14:30
  TRACK 927 AUDIO
    TITLE "0:"
    INDEX 01 20:16:33
  TRACK 928 AUDIO
    TITLE "40:cjc024_7584"
    INDEX 01 20:17:32
  TRACK 929 AUDIO
    TITLE "0:"
    INDEX 01 20:18:53
  TRACK 930 AUDIO
    TITLE "41:cjc024_7585"
    INDEX 01 20:19:25
  TRACK 931 AUDIO
    TITLE "0:"
    INDEX 01 20:21:30
  TRACK 932 AUDIO
    TITLE "42:cjc024_7586"
    INDEX 01 20:21:56
  TRACK 933 AUDIO
    TITLE "0:"
    INDEX 01 20:23:31
  TRACK 934 AUDIO
    TITLE "41:cjc024_7587"
    INDEX 01 20:24:05
  TRACK 935 AUDIO
    TITLE "0:"
    INDEX 01 20:25:51
  TRACK 936 AUDIO
    TITLE "42:cjc024_7588"
    INDEX 01 20:26:06
  TRACK 937 AUDIO
    TITLE "0:"
    INDEX 01 20:27:62
  TRACK 938 AUDIO
    TITLE "40:cjc024_7589"
    INDEX 01 20:28:61
  TRACK 939 AUDIO
    TITLE "0:"
    INDEX 01 20:30:02
  TRACK 940 AUDIO
    TITLE "41:cjc024_7590"
    INDEX 01 20:30:58
  TRACK 941 AUDIO
    TITLE "0:"
    INDEX 01 20:34:09
  TRACK 942 AUDIO
    TITLE "42:cjc024_7591"
    INDEX 01 20:34:31
  TRACK 943 AUDIO
    TITLE "0:"
    INDEX 01 20:37:02
  TRACK 944 AUDIO
    TITLE "40:cjc024_7592"
    INDEX 01 20:38:03
  TRACK 945 AUDIO
    TITLE "0:"
    INDEX 01 20:39:14
  TRACK 946 AUDIO
    TITLE "41:cjc024_7593"
    INDEX 01 20:39:67
  TRACK 947 AUDIO
    TITLE "0:"
    INDEX 01 20:41:43
  TRACK 948 AUDIO
    TITLE "42:cjc024_7594"
    INDEX 01 20:42:01
  TRACK 949 AUDIO
    TITLE "0:"
    INDEX 01 20:43:59
  TRACK 950 AUDIO
    TITLE "41:cjc024_7595"
    INDEX 01 20:44:35
  TRACK 951 AUDIO
    TITLE "0:"
    INDEX 01 20:46:34
  TRACK 952 AUDIO
    TITLE "42:cjc024_7596"
    INDEX 01 20:46:57
  TRACK 953 AUDIO
    TITLE "0:"
    INDEX 01 20:48:27
  TRACK 954 AUDIO
    TITLE "40:cjc024_7597"
    INDEX 01 20:49:22
  TRACK 955 AUDIO
    TITLE "0:"
    INDEX 01 20:50:26
  TRACK 956 AUDIO
    TITLE "41:cjc024_7598"
    INDEX 01 20:51:02
  TRACK 957 AUDIO
    TITLE "0:"
    INDEX 01 20:52:29
  TRACK 958 AUDIO
    TITLE "42:cjc024_7599"
    INDEX 01 20:52:54
  TRACK 959 AUDIO
    TITLE "0:"
    INDEX 01 20:54:22
  TRACK 960 AUDIO
    TITLE "41:cjc024_7600"
    INDEX 01 20:54:71
  TRACK 961 AUDIO
    TITLE "0:"
    INDEX 01 20:56:42
  TRACK 962 AUDIO
    TITLE "42:cjc024_7601"
    INDEX 01 20:56:68
  TRACK 963 AUDIO
    TITLE "0:"
    INDEX 01 20:58:37
  TRACK 964 AUDIO
    TITLE "40:cjc024_7602"
    INDEX 01 20:59:35
  TRACK 965 AUDIO
    TITLE "0:"
    INDEX 01 21:00:44
  TRACK 966 AUDIO
    TITLE "41:cjc024_7603"
    INDEX 01 21:01:22
  TRACK 967 AUDIO
    TITLE "0:"
    INDEX 01 21:04:18
  TRACK 968 AUDIO
    TITLE "42:cjc024_7604"
    INDEX 01 21:04:42
  TRACK 969 AUDIO
    TITLE "0:"
    INDEX 01 21:06:70
  TRACK 970 AUDIO
    TITLE "41:cjc024_7605"
    INDEX 01 21:07:48
  TRACK 971 AUDIO
    TITLE "0:"
    INDEX 01 21:09:57
  TRACK 972 AUDIO
    TITLE "42:cjc024_7606"
    INDEX 01 21:10:13
  TRACK 973 AUDIO
    TITLE "0:"
    INDEX 01 21:12:20
  TRACK 974 AUDIO
    TITLE "41:cjc024_7607"
    INDEX 01 21:12:71
  TRACK 975 AUDIO
    TITLE "0:"
    INDEX 01 21:14:36
  TRACK 976 AUDIO
    TITLE "42:cjc024_7608"
    INDEX 01 21:14:60
  TRACK 977 AUDIO
    TITLE "0:"
    INDEX 01 21:16:43
  TRACK 978 AUDIO
    TITLE "40:cjc024_7609"
    INDEX 01 21:17:40
  TRACK 979 AUDIO
    TITLE "0:"
    INDEX 01 21:18:55
  TRACK 980 AUDIO
    TITLE "41:cjc024_7610"
    INDEX 01 21:19:41
  TRACK 981 AUDIO
    TITLE "0:"
    INDEX 01 21:21:44
  TRACK 982 AUDIO
    TITLE "42:cjc024_7611"
    INDEX 01 21:21:68
  TRACK 983 AUDIO
    TITLE "0:"
    INDEX 01 21:23:49
  TRACK 984 AUDIO
    TITLE "41:cjc024_7612"
    INDEX 01 21:24:27
  TRACK 985 AUDIO
    TITLE "0:"
    INDEX 01 21:27:49
  TRACK 986 AUDIO
    TITLE "42:cjc024_7613"
    INDEX 01 21:27:72
  TRACK 987 AUDIO
    TITLE "0:"
    INDEX 01 21:30:45
  TRACK 988 AUDIO
    TITLE "41:cjc024_7614"
    INDEX 01 21:31:21
  TRACK 989 AUDIO
    TITLE "0:"
    INDEX 01 21:33:65
  TRACK 990 AUDIO
    TITLE "42:cjc024_7615"
    INDEX 01 21:34:13
  TRACK 991 AUDIO
    TITLE "0:"
    INDEX 01 21:36:18
  TRACK 992 AUDIO
    TITLE "40:cjc024_7616"
    INDEX 01 21:37:18
  TRACK 993 AUDIO
    TITLE "0:"
    INDEX 01 21:38:35
  TRACK 994 AUDIO
    TITLE "41:cjc024_7617"
    INDEX 01 21:39:13
  TRACK 995 AUDIO
    TITLE "0:"
    INDEX 01 21:41:43
  TRACK 996 AUDIO
    TITLE "42:cjc024_7618"
    INDEX 01 21:41:62
  TRACK 997 AUDIO
    TITLE "0:"
    INDEX 01 21:43:46
  TRACK 998 AUDIO
    TITLE "41:cjc024_7619"
    INDEX 01 21:44:24
  TRACK 999 AUDIO
    TITLE "0:"
    INDEX 01 21:47:22
  TRACK 1000 AUDIO
    TITLE "42:cjc024_7620"
    INDEX 01 21:47:45
  TRACK 1001 AUDIO
    TITLE "0:"
    INDEX 01 21:50:34
  TRACK 1002 AUDIO
    TITLE "40:cjc024_7621"
    INDEX 01 21:51:29
  TRACK 1003 AUDIO
    TITLE "0:"
    INDEX 01 21:52:29
  TRACK 1004 AUDIO
    TITLE "41:cjc024_7622"
    INDEX 01 21:53:03
  TRACK 1005 AUDIO
    TITLE "0:"
    INDEX 01 21:54:43
  TRACK 1006 AUDIO
    TITLE "42:cjc024_7623"
    INDEX 01 21:54:69
  TRACK 1007 AUDIO
    TITLE "0:"
    INDEX 01 21:56:58
  TRACK 1008 AUDIO
    TITLE "40:cjc024_7624"
    INDEX 01 21:57:59
  TRACK 1009 AUDIO
    TITLE "0:"
    INDEX 01 21:58:67
  TRACK 1010 AUDIO
    TITLE "41:cjc024_7625"
    INDEX 01 21:59:43
  TRACK 1011 AUDIO
    TITLE "0:"
    INDEX 01 22:01:16
  TRACK 1012 AUDIO
    TITLE "42:cjc024_7626"
    INDEX 01 22:01:42
  TRACK 1013 AUDIO
    TITLE "0:"
    INDEX 01 22:03:19
  TRACK 1014 AUDIO
    TITLE "41:cjc024_7627"
    INDEX 01 22:03:64
  TRACK 1015 AUDIO
    TITLE "0:"
    INDEX 01 22:05:59
  TRACK 1016 AUDIO
    TITLE "42:cjc024_7628"
    INDEX 01 22:06:07
  TRACK 1017 AUDIO
    TITLE "0:"
    INDEX 01 22:08:46
  TRACK 1018 AUDIO
    TITLE "41:cjc024_7629"
    INDEX 01 22:09:20
  TRACK 1019 AUDIO
    TITLE "0:"
    INDEX 01 22:10:62
  TRACK 1020 AUDIO
    TITLE "42:cjc024_7630"
    INDEX 01 22:11:13
  TRACK 1021 AUDIO
    TITLE "0:"
    INDEX 01 22:12:49
  TRACK 1022 AUDIO
    TITLE "40:cjc024_7631"
    INDEX 01 22:13:51
  TRACK 1023 AUDIO
    TITLE "0:"
    INDEX 01 22:14:50
  TRACK 1024 AUDIO
    TITLE "41:cjc024_7632"
    INDEX 01 22:15:26
  TRACK 1025 AUDIO
    TITLE "0:"
    INDEX 01 22:19:04
  TRACK 1026 AUDIO
    TITLE "42:cjc024_7633"
    INDEX 01 22:19:30
  TRACK 1027 AUDIO
    TITLE "0:"
    INDEX 01 22:21:31
  TRACK 1028 AUDIO
    TITLE "40:cjc024_7634"
    INDEX 01 22:22:32
  TRACK 1029 AUDIO
    TITLE "0:"
    INDEX 01 22:23:26
  TRACK 1030 AUDIO
    TITLE "41:cjc024_7635"
    INDEX 01 22:24:03
  TRACK 1031 AUDIO
    TITLE "0:"
    INDEX 01 22:26:61
  TRACK 1032 AUDIO
    TITLE "42:cjc024_7636"
    INDEX 01 22:27:12
  TRACK 1033 AUDIO
    TITLE "0:"
    INDEX 01 22:30:00
  TRACK 1034 AUDIO
    TITLE "41:cjc024_7637"
    INDEX 01 22:30:49
  TRACK 1035 AUDIO
    TITLE "0:"
    INDEX 01 22:32:58
  TRACK 1036 AUDIO
    TITLE "42:cjc024_7638"
    INDEX 01 22:33:08
  TRACK 1037 AUDIO
    TITLE "0:"
    INDEX 01 22:34:43
  TRACK 1038 AUDIO
    TITLE "41:cjc024_7639"
    INDEX 01 22:35:19
  TRACK 1039 AUDIO
    TITLE "0:"
    INDEX 01 22:38:09
  TRACK 1040 AUDIO
    TITLE "42:cjc024_7640"
    INDEX 01 22:38:35
  TRACK 1041 AUDIO
    TITLE "0:"
    INDEX 01 22:41:12
  TRACK 1042 AUDIO
    TITLE "40:cjc024_7641"
    INDEX 01 22:42:13
  TRACK 1043 AUDIO
    TITLE "0:"
    INDEX 01 22:43:22
  TRACK 1044 AUDIO
    TITLE "41:cjc024_7642"
    INDEX 01 22:43:73
  TRACK 1045 AUDIO
    TITLE "0:"
    INDEX 01 22:46:60
  TRACK 1046 AUDIO
    TITLE "42:cjc024_7643"
    INDEX 01 22:47:08
  TRACK 1047 AUDIO
    TITLE "0:"
    INDEX 01 22:49:25
  TRACK 1048 AUDIO
    TITLE "41:cjc024_7644"
    INDEX 01 22:50:03
  TRACK 1049 AUDIO
    TITLE "0:"
    INDEX 01 22:53:29
  TRACK 1050 AUDIO
    TITLE "42:cjc024_7645"
    INDEX 01 22:53:52
  TRACK 1051 AUDIO
    TITLE "0:"
    INDEX 01 22:56:62
  TRACK 1052 AUDIO
    TITLE "41:cjc024_7646"
    INDEX 01 22:57:40
  TRACK 1053 AUDIO
    TITLE "0:"
    INDEX 01 23:00:19
  TRACK 1054 AUDIO
    TITLE "42:cjc024_7647"
    INDEX 01 23:00:40
  TRACK 1055 AUDIO
    TITLE "0:"
    INDEX 01 23:02:63
  TRACK 1056 AUDIO
    TITLE "40:cjc024_7648"
    INDEX 01 23:03:62
  TRACK 1057 AUDIO
    TITLE "0:"
    INDEX 01 23:04:56
  TRACK 1058 AUDIO
    TITLE "41:cjc024_7649"
    INDEX 01 23:05:30
  TRACK 1059 AUDIO
    TITLE "0:"
    INDEX 01 23:08:07
  TRACK 1060 AUDIO
    TITLE "42:cjc024_7650"
    INDEX 01 23:08:32
  TRACK 1061 AUDIO
    TITLE "0:"
    INDEX 01 23:10:49
